<?xml version="1.0" standalone="no"?>
<!DOCTYPE svg PUBLIC "-//W3C//DTD SVG 20010904//EN"
 "http://www.w3.org/TR/2001/REC-SVG-20010904/DTD/svg10.dtd">
<svg version="1.0" xmlns="http://www.w3.org/2000/svg"
 width="500.000000pt" height="500.000000pt" viewBox="0 0 500.000000 500.000000"
 preserveAspectRatio="xMidYMid meet">

<g transform="translate(0.000000,500.000000) scale(0.100000,-0.100000)"
fill="#000000" stroke="none">
<path d="M1806 3283 c3 -273 7 -499 9 -502 6 -5 193 73 333 139 l102 49 0 406
0 405 -224 0 -224 0 4 -497z"/>
<path d="M2700 3411 l0 -369 -37 -22 c-332 -197 -1024 -498 -1253 -545 -405
-85 -750 -18 -874 169 -61 91 -79 163 -74 296 4 100 8 125 36 196 53 133 163
278 273 359 144 107 352 183 509 186 l45 1 -40 19 c-110 52 -171 64 -350 64
-159 0 -176 -2 -260 -28 -328 -104 -550 -332 -627 -645 -47 -191 -21 -397 73
-587 115 -233 315 -396 567 -462 85 -22 119 -25 282 -26 210 -2 315 15 509 79
111 37 269 101 286 116 5 4 17 8 27 8 16 0 18 -11 18 -105 l0 -105 220 0 220
0 0 235 0 235 133 90 c72 49 170 116 216 149 46 33 88 58 93 55 4 -3 8 -176 8
-385 l0 -379 220 0 220 0 0 543 0 542 88 54 c153 94 192 114 197 99 2 -7 6
-150 8 -318 3 -297 4 -307 29 -381 57 -167 144 -286 287 -392 246 -183 584
-194 854 -28 29 18 35 26 25 33 -10 7 -9 8 4 4 31 -9 171 135 232 239 14 22
14 25 2 11 -9 -11 -16 -15 -16 -8 0 6 9 17 20 25 12 8 35 53 53 103 l32 89 5
561 c3 308 4 568 2 577 -3 15 -25 17 -207 17 l-204 0 -3 -537 c-3 -532 -3
-539 -26 -594 -39 -98 -140 -185 -241 -209 -157 -37 -323 39 -399 184 l-27 51
-3 543 c-1 315 -6 542 -12 542 -11 0 -115 -56 -152 -82 -14 -10 -29 -18 -32
-18 -4 0 -37 -20 -74 -43 -37 -24 -98 -64 -137 -88 -38 -24 -118 -79 -178
-121 -59 -43 -112 -78 -117 -78 -6 0 -10 86 -10 225 l0 225 -220 0 -220 0 0
-369z m70 -451 c-14 -11 -29 -20 -35 -20 -5 0 1 9 15 20 14 11 30 20 35 20 6
0 -1 -9 -15 -20z m-95 -60 c-3 -5 -12 -10 -18 -10 -7 0 -6 4 3 10 19 12 23 12
15 0z m-76 -53 c-2 -1 -14 -11 -27 -22 -17 -14 -23 -16 -20 -5 3 14 23 28 42
29 5 1 7 0 5 -2z m-84 -60 c-11 -6 -21 -5 -28 3 -9 8 -7 9 7 4 13 -5 17 -4 12
4 -5 8 -2 10 10 5 15 -6 15 -7 -1 -16z m-40 -17 c4 -6 -1 -7 -11 -3 -11 4 -15
3 -10 -5 3 -6 2 -13 -3 -16 -7 -5 -8 11 -2 32 2 6 21 1 26 -8z m-97 -65 c-7
-6 -68 -24 -68 -20 0 9 55 33 63 28 5 -3 7 -6 5 -8z m-78 -49 c0 -11 -19 -15
-25 -6 -3 5 1 10 9 10 9 0 16 -2 16 -4z m-35 -26 c-3 -5 -11 -10 -16 -10 -6 0
-7 5 -4 10 3 6 11 10 16 10 6 0 7 -4 4 -10z m-57 -35 c-2 -1 -14 -8 -27 -15
-19 -10 -22 -10 -16 1 6 9 3 11 -9 6 -10 -4 -15 -3 -11 4 4 5 16 7 27 3 14 -4
18 -2 14 5 -5 7 -1 9 9 5 9 -4 15 -8 13 -9z m-130 -54 c-7 -11 -16 -17 -21
-14 -4 3 0 11 10 19 24 18 25 17 11 -5z m-60 -39 c8 -6 2 -9 -18 -9 -20 0 -26
3 -18 9 7 4 15 8 18 8 3 0 11 -4 18 -8z m-43 -32 c-3 -5 -12 -10 -18 -10 -7 0
-6 4 3 10 19 12 23 12 15 0z m-103 -36 c-21 -14 -92 -30 -79 -18 7 7 78 33 92
34 5 0 -1 -7 -13 -16z m-137 -64 c-3 -5 -12 -7 -20 -3 -21 7 -19 13 6 13 11 0
18 -4 14 -10z m-48 -22 c-3 -8 -6 -5 -6 6 -1 11 2 17 5 13 3 -3 4 -12 1 -19z
m-42 2 c3 -5 -1 -10 -9 -10 -9 0 -16 5 -16 10 0 6 4 10 9 10 6 0 13 -4 16 -10z
m-1105 -26 c0 -2 -9 0 -20 6 -11 6 -20 13 -20 16 0 2 9 0 20 -6 11 -6 20 -13
20 -16z m1025 6 c-11 -5 -27 -9 -35 -9 -9 0 -8 4 5 9 11 5 27 9 35 9 9 0 8 -4
-5 -9z m82 -6 c-3 -3 -12 -4 -19 -1 -8 3 -5 6 6 6 11 1 17 -2 13 -5z m-1049
-15 c-2 -6 3 -14 11 -17 8 -3 11 0 7 7 -5 7 -1 9 9 5 11 -5 13 -10 6 -17 -12
-12 -64 11 -55 25 8 12 24 10 22 -3z m992 2 c0 -5 -9 -11 -19 -14 -14 -3 -18
-1 -14 9 6 15 33 19 33 5z m-65 -11 c-3 -5 -11 -10 -16 -10 -6 0 -7 5 -4 10 3
6 11 10 16 10 6 0 7 -4 4 -10z m-95 -10 c18 -12 2 -12 -25 0 -13 6 -15 9 -5 9
8 0 22 -4 30 -9z m-97 -17 c-7 -2 -19 -2 -25 0 -7 3 -2 5 12 5 14 0 19 -2 13
-5z m-480 -20 c-7 -2 -19 -2 -25 0 -7 3 -2 5 12 5 14 0 19 -2 13 -5z m350 0
c-13 -2 -33 -2 -45 0 -13 2 -3 4 22 4 25 0 35 -2 23 -4z m122 -2 l-20 -8 20
-5 c11 -2 -4 -4 -32 -3 -81 0 -67 18 17 22 27 2 30 0 15 -6z m-540 -11 c-11
-5 -27 -9 -35 -9 -9 0 -8 4 5 9 11 5 27 9 35 9 9 0 8 -4 -5 -9z m288 3 c-7 -2
-19 -2 -25 0 -7 3 -2 5 12 5 14 0 19 -2 13 -5z m-103 -13 c-8 -5 -24 -9 -35
-9 -16 1 -16 2 5 9 35 11 48 11 30 0z m165 0 c3 -5 1 -10 -4 -10 -6 0 -11 5
-11 10 0 6 2 10 4 10 3 0 8 -4 11 -10z m69 1 c4 -5 -3 -7 -14 -4 -23 6 -26 13
-6 13 8 0 17 -4 20 -9z m-247 -27 c-3 -3 -12 -4 -19 -1 -8 3 -5 6 6 6 11 1 17
-2 13 -5z m176 -1 c-7 -2 -19 -2 -25 0 -7 3 -2 5 12 5 14 0 19 -2 13 -5z"/>
<path d="M2323 1721 c-78 -20 -119 -75 -110 -148 7 -65 34 -87 148 -123 105
-32 126 -50 115 -96 -10 -40 -48 -57 -113 -52 -49 4 -61 9 -83 37 -23 27 -31
30 -58 25 -38 -8 -40 -21 -10 -59 68 -86 258 -86 326 0 16 21 22 41 22 81 0
80 -30 109 -144 140 -92 24 -126 44 -126 76 0 57 114 82 159 34 19 -20 27 -23
53 -15 40 11 42 13 28 38 -24 45 -138 79 -207 62z"/>
<path d="M1190 1485 l0 -235 38 -1 c208 -6 273 17 325 116 25 47 29 157 9 217
-17 49 -82 112 -130 126 -22 7 -85 12 -141 12 l-101 0 0 -235z m246 145 c37
-35 54 -80 54 -146 0 -111 -53 -169 -155 -169 l-60 0 -3 174 -2 173 69 -4 c57
-3 75 -8 97 -28z"/>
<path d="M1670 1485 c0 -260 -6 -237 60 -237 11 0 70 0 130 1 l110 1 0 30 0
29 -112 3 -113 3 -1 50 c-1 28 3 60 7 73 8 22 13 23 89 20 l80 -3 0 33 0 32
-85 0 -84 0 -6 33 c-4 19 -5 47 -3 63 l3 29 113 3 112 3 0 34 0 35 -150 0
-150 0 0 -235z"/>
<path d="M2650 1483 l0 -238 138 2 c75 1 143 2 150 2 7 1 12 14 12 31 l0 30
-110 0 -110 0 0 73 0 74 79 -2 c90 -3 104 3 99 36 -3 23 -7 24 -90 27 l-88 3
0 64 0 65 110 0 110 0 0 35 0 35 -150 0 -150 0 0 -237z"/>
<path d="M2980 1685 l0 -35 65 0 65 0 0 -202 0 -203 43 0 42 1 3 202 2 202 60
0 60 0 0 35 0 35 -170 0 -170 0 0 -35z"/>
<path d="M3380 1483 l0 -238 40 0 40 0 0 238 0 237 -40 0 -40 0 0 -237z"/>
<path d="M3580 1485 l0 -235 40 0 40 0 0 100 0 99 82 3 82 3 1 30 0 30 -82 3
-83 3 0 64 0 65 105 0 105 0 0 35 0 35 -145 0 -145 0 0 -235z"/>
<path d="M25 1490 c-3 -5 -3 -14 0 -20 4 -6 182 -10 501 -10 487 0 494 0 494
20 0 20 -7 20 -494 20 -319 0 -497 -4 -501 -10z"/>
<path d="M3970 1480 c0 -20 7 -20 495 -20 488 0 495 0 495 20 0 20 -7 20 -495
20 -488 0 -495 0 -495 -20z"/>
</g>
</svg>
