<?xml version="1.0" encoding="UTF-8" standalone="no"?>
<!-- Created with Inkscape (http://www.inkscape.org/) -->

<svg
   version="1.1"
   id="svg2"
   width="30"
   height="30"
   viewBox="0 0 2560 1440"
   sodipodi:docname="Nawa Logo.ai"
   xmlns:inkscape="http://www.inkscape.org/namespaces/inkscape"
   xmlns:sodipodi="http://sodipodi.sourceforge.net/DTD/sodipodi-0.dtd"
   xmlns="http://www.w3.org/2000/svg"
   xmlns:svg="http://www.w3.org/2000/svg">
  <defs
     id="defs6">
    <clipPath
       clipPathUnits="userSpaceOnUse"
       id="clipPath16">
      <path
         d="M 0,1080 H 1920 V 0 H 0 Z"
         id="path14" />
    </clipPath>
    <clipPath
       clipPathUnits="userSpaceOnUse"
       id="clipPath28">
      <path
         d="m 905.097,645.51 c -1.086,0 -1.086,-1.117 0,-1.117 v 0 c 20.567,0 25.974,-54.939 25.974,-87.222 v 0 -61.719 L 812.017,645.51 h -51.969 c -1.086,0 -1.086,-1.117 0,-1.117 v 0 c 19.019,0 25.083,-46.98 25.892,-79.602 v 0 -36.943 c -0.01,-32.304 -5.419,-87.232 -25.984,-87.232 v 0 c -1.097,0 -1.097,-1.117 0,-1.117 v 0 h 59.742 c 1.086,0 1.086,1.117 0,1.117 v 0 c -20.566,0 -25.984,54.928 -25.984,87.232 v 0 84.784 L 931.071,439.51 v -0.011 h 7.795 v 117.672 c 0,32.283 5.407,87.222 25.974,87.222 v 0 c 1.095,0 1.095,1.117 0,1.117 v 0 z"
         id="path26" />
    </clipPath>
    <clipPath
       clipPathUnits="userSpaceOnUse"
       id="clipPath40">
      <path
         d="M 0,1080 H 1920 V 0 H 0 Z"
         id="path38" />
    </clipPath>
    <clipPath
       clipPathUnits="userSpaceOnUse"
       id="clipPath52">
      <path
         d="m 998.301,596.337 v -22.994 c 8.254,9.72 26.773,22.656 51.733,22.656 v 0 c 25.461,0 35.56,-8.727 35.56,-18.518 v 0 c 0,-14.728 -18.733,-20.915 -31.637,-24.858 v 0 c -37.651,-11.553 -79.664,-23.689 -79.664,-64.832 v 0 c 0,-35.755 31.628,-53.301 70.66,-53.301 v 0 c 18.026,0 41.276,9.772 67.004,9.772 v 0 c 7.201,0 20.065,-1.495 20.065,-4.2 v 0 c 0,-0.748 1.628,-0.748 1.628,0 v 0 110.462 c 0,37.19 -28.923,50.822 -72.012,50.822 v 0 c -14.062,0 -50.422,-3.299 -63.337,-5.009 m 20.371,-106.795 c 0,25.135 17.657,41.102 37.773,52.368 v 0 c 11.031,6.166 28.473,12.988 32.785,23.916 v 0 c 0.02,-2.203 0.02,-117.959 0.02,-117.959 v 0 c -7.763,-2.264 -15.681,-3.461 -23.29,-3.461 v 0 c -25.421,0 -47.288,13.375 -47.288,45.136"
         id="path50" />
    </clipPath>
    <clipPath
       clipPathUnits="userSpaceOnUse"
       id="clipPath64">
      <path
         d="M 0,1080 H 1920 V 0 H 0 Z"
         id="path62" />
    </clipPath>
    <clipPath
       clipPathUnits="userSpaceOnUse"
       id="clipPath76">
      <path
         d="m 1380.261,596.337 c -1.087,0 -1.087,-1.107 0,-1.107 v 0 c 20.575,0 11.86,-29.138 -21.97,-115.121 v 0 c -4.435,10.662 -11.604,27.879 -11.604,27.879 v 0 c -14.605,35.09 -31.351,87.232 -10.786,87.232 v 0 c 1.086,0 1.086,1.117 0,1.117 v 0 h -96.347 c -1.086,0 -1.086,-1.117 0,-1.117 v 0 c 14.533,0 28.115,-8.941 41.951,-39.124 v 0 c -7.722,-19.583 -31.156,-75.987 -31.156,-75.987 v 0 l -11.604,27.879 c -14.605,35.09 -31.352,87.232 -10.785,87.232 v 0 c 1.085,0 1.085,1.117 0,1.117 v 0 h -96.359 c -1.075,0 -1.075,-1.117 0,-1.117 v 0 c 20.577,0 33.861,-17.811 62.754,-87.232 v 0 l 28.494,-68.489 h 44.502 c 1.086,0 1.086,1.117 0,1.117 v 0 c -26.301,0 -6.882,44.584 18.456,105.217 v 0 c 4.845,-10.375 10.253,-22.85 16.49,-37.845 v 0 l 28.504,-68.489 h 44.502 c 1.076,0 1.076,1.117 0,1.117 v 0 c -20.576,0 -6.709,45.649 9.413,88.236 v 0 c 15.363,40.548 34.731,66.378 55.297,66.378 v 0 c 1.086,0 1.086,1.107 0,1.107 v 0 z"
         id="path74" />
    </clipPath>
    <clipPath
       clipPathUnits="userSpaceOnUse"
       id="clipPath88">
      <path
         d="M 0,1080 H 1920 V 0 H 0 Z"
         id="path86" />
    </clipPath>
    <clipPath
       clipPathUnits="userSpaceOnUse"
       id="clipPath100">
      <path
         d="m 1454.035,596.337 v -22.994 c 8.254,9.72 26.773,22.656 51.723,22.656 v 0 c 25.471,0 35.56,-8.727 35.56,-18.518 v 0 c 0,-14.728 -18.722,-20.915 -31.628,-24.858 v 0 c -37.65,-11.553 -79.674,-23.689 -79.674,-64.832 v 0 c 0,-35.755 31.639,-53.301 70.671,-53.301 v 0 c 18.027,0 41.276,9.772 67.005,9.772 v 0 c 7.2,0 20.054,-1.495 20.054,-4.2 v 0 c 0,-0.748 1.638,-0.748 1.638,0 v 0 110.462 c 0,37.19 -28.934,50.822 -72.012,50.822 v 0 c -14.062,0 -50.422,-3.299 -63.337,-5.009 m 20.371,-106.795 c 0,25.135 17.658,41.102 37.773,52.368 v 0 c 11.03,6.166 28.473,12.988 32.785,23.916 v 0 c 0.021,-2.203 0.021,-117.959 0.021,-117.959 v 0 c -7.763,-2.264 -15.681,-3.461 -23.301,-3.461 v 0 c -25.421,0 -47.278,13.375 -47.278,45.136"
         id="path98" />
    </clipPath>
    <clipPath
       clipPathUnits="userSpaceOnUse"
       id="clipPath112">
      <path
         d="M 0,1080 H 1920 V 0 H 0 Z"
         id="path110" />
    </clipPath>
    <clipPath
       clipPathUnits="userSpaceOnUse"
       id="clipPath124">
      <path
         d="m 1619.168,598.754 c -3.297,-1.977 -5.888,-4.63 -7.814,-7.979 v 0 c -1.906,-3.328 -2.869,-6.933 -2.869,-10.805 v 0 c 0,-3.871 0.944,-7.467 2.848,-10.785 v 0 c 1.885,-3.308 4.477,-5.951 7.763,-7.896 v 0 c 3.309,-1.967 6.935,-2.94 10.888,-2.94 v 0 c 3.995,0 7.651,0.993 10.959,2.97 v 0 c 3.329,1.967 5.941,4.63 7.856,7.969 v 0 c 1.904,3.338 2.868,6.943 2.868,10.815 v 0 c 0,3.902 -0.964,7.518 -2.868,10.836 v 0 c -1.915,3.318 -4.517,5.951 -7.815,7.887 v 0 c -3.288,1.925 -6.923,2.888 -10.877,2.888 v 0 c -3.994,0 -7.641,-0.973 -10.939,-2.96 m 1.188,-35.325 c -2.898,1.711 -5.182,4.035 -6.862,6.944 v 0 c -1.68,2.919 -2.519,6.115 -2.519,9.597 v 0 c 0,3.482 0.839,6.699 2.519,9.638 v 0 c 1.68,2.929 3.984,5.264 6.924,7.006 v 0 c 2.929,1.751 6.156,2.621 9.689,2.621 v 0 c 3.533,0 6.76,-0.86 9.699,-2.591 v 0 c 2.94,-1.721 5.234,-4.035 6.924,-6.944 v 0 c 1.67,-2.919 2.509,-6.104 2.509,-9.597 v 0 c 0,-3.493 -0.85,-6.709 -2.54,-9.638 v 0 c -1.71,-2.929 -4.024,-5.274 -6.965,-7.016 v 0 c -2.928,-1.741 -6.185,-2.611 -9.75,-2.611 v 0 c -3.533,0 -6.739,0.86 -9.628,2.591 m 1.577,28.534 v -22.829 h 2.438 v 7.323 h 6.064 c 0.676,0 1.168,0.031 1.465,0.061 v 0 l 4.906,-7.384 h 2.928 l -5.54,7.845 c 1.7,0.502 2.991,1.393 3.882,2.673 v 0 c 0.911,1.281 1.341,2.858 1.341,4.723 v 0 c 0,2.416 -0.778,4.291 -2.324,5.612 v 0 c -1.558,1.321 -3.78,1.976 -6.658,1.976 v 0 z m 2.438,-2.171 h 6.064 c 2.12,0 3.759,-0.46 4.905,-1.403 v 0 c 1.148,-0.932 1.721,-2.295 1.721,-4.076 v 0 c 0,-1.834 -0.573,-3.237 -1.721,-4.21 v 0 c -1.146,-0.994 -2.785,-1.475 -4.905,-1.475 v 0 h -6.064 z"
         id="path122" />
    </clipPath>
    <clipPath
       clipPathUnits="userSpaceOnUse"
       id="clipPath136">
      <path
         d="M 0,1080 H 1920 V 0 H 0 Z"
         id="path134" />
    </clipPath>
    <clipPath
       clipPathUnits="userSpaceOnUse"
       id="clipPath148">
      <path
         d="m 647.094,477.682 c -28.299,-6.311 -43.064,-15.779 -45.251,-50.028 v 0 c -1.761,-27.537 -20.775,-47.299 -52.173,-54.205 v 0 c -31.209,-6.884 -67.506,1.362 -76.149,17.291 v 0 c -3.366,6.204 -3.226,12.22 0.441,17.861 v 0 c 5.283,8.134 17.651,14.143 27.498,13.348 v 0 c 3.366,-0.267 7.771,-1.465 9.643,-5.666 v 0 c 2.192,-4.937 6.393,-7.45 11.782,-7.042 v 0 c 9.478,0.688 21.338,10.496 23.947,19.804 v 0 c 0.418,1.485 -0.451,3.023 -1.935,3.44 v 0 c -1.484,0.421 -3.022,-0.446 -3.439,-1.93 v 0 c -1.96,-6.995 -11.889,-15.237 -18.976,-15.756 v 0 c -3.06,-0.227 -5.049,0.976 -6.286,3.75 v 0 c -2.333,5.243 -7.412,8.421 -14.304,8.959 v 0 c -11.899,0.917 -26.222,-6.034 -32.606,-15.866 v 0 c -4.724,-7.281 -4.962,-15.653 -0.664,-23.564 v 0 c 7.547,-13.907 31.815,-22.667 58.008,-22.662 v 0 c 8.042,0 16.259,0.825 24.243,2.58 v 0 c 33.997,7.489 54.607,29.108 56.538,59.299 v 0 c 1.853,29.113 12.703,37.892 35.972,43.776 v 0 c -3.081,-8.401 -10.279,-26.247 -20.043,-39.188 v 0 c -0.931,-1.227 -0.684,-2.978 0.544,-3.904 v 0 c 1.226,-0.922 2.978,-0.68 3.909,0.548 v 0 c 13.708,18.16 22.21,44.47 22.565,45.585 v 0 c 0.301,0.951 0.073,1.993 -0.597,2.731 v 0 c -0.538,0.582 -1.29,0.902 -2.061,0.902 v 0 c -0.204,0 -0.407,-0.019 -0.606,-0.063"
         id="path146" />
    </clipPath>
    <clipPath
       clipPathUnits="userSpaceOnUse"
       id="clipPath160">
      <path
         d="M 0,1080 H 1920 V 0 H 0 Z"
         id="path158" />
    </clipPath>
    <clipPath
       clipPathUnits="userSpaceOnUse"
       id="clipPath172">
      <path
         d="m 404.681,580.291 c -3.492,-0.257 -3.943,-0.296 -2.342,-66.88 v 0 c 0.771,-31.868 8.188,-54.074 22.045,-65.997 v 0 c 9.066,-7.795 18.263,-8.75 22.211,-8.75 v 0 c 1.169,0 1.872,0.088 1.994,0.102 v 0 c 1.523,0.189 2.59,1.577 2.406,3.1 v 0 c -0.18,1.523 -1.543,2.609 -3.1,2.43 v 0 c -0.402,-0.043 -10.176,-1.077 -20.003,7.465 v 0 c -12.355,10.729 -19.262,32.092 -19.98,61.782 v 0 c -1.004,41.681 -0.874,55.888 -0.65,60.719 v 0 c 0.563,0.587 0.868,1.407 0.752,2.28 v 0 c -0.379,3.041 -1.834,3.764 -3.051,3.764 v 0 c -0.097,0 -0.194,-0.005 -0.282,-0.015"
         id="path170" />
    </clipPath>
    <clipPath
       clipPathUnits="userSpaceOnUse"
       id="clipPath184">
      <path
         d="M 0,1080 H 1920 V 0 H 0 Z"
         id="path182" />
    </clipPath>
    <clipPath
       clipPathUnits="userSpaceOnUse"
       id="clipPath196">
      <path
         d="m 302.019,612.029 c -8.76,-4.934 -17.811,-11.424 -25.48,-18.258 v 0 c -1.154,-1.028 -1.256,-2.789 -0.227,-3.939 v 0 c 1.023,-1.149 2.783,-1.251 3.938,-0.228 v 0 c 7.383,6.578 16.084,12.82 24.505,17.564 v 0 c 20.702,11.656 36.743,14.333 47.671,7.945 v 0 c 14.877,-8.697 15.624,-31.16 15.624,-35.573 v 0 c 0,-3.178 0.102,-7.606 0.218,-12.928 v 0 c 0.64,-29.301 2.348,-107.134 -15.73,-113.764 v 0 c -6.859,-2.518 -16.031,-4.211 -20.76,2.007 v 0 c -6.912,9.086 -2.062,30.539 11.045,48.841 v 0 c 14.687,20.474 22.836,49.66 18.558,66.438 v 0 c -1.466,5.738 -4.415,9.812 -8.528,11.801 v 0 c -4.225,2.038 -7.984,2.081 -11.181,0.126 v 0 c -8.061,-4.928 -9.55,-21.113 -9.957,-37.872 v 0 c -0.466,-19.019 -7.897,-44.922 -23.094,-56.879 v 0 c -7.926,-6.232 -17.389,-8.207 -28.139,-5.883 v 0 c -1.493,0.32 -2.982,-0.631 -3.307,-2.139 v 0 c -0.325,-1.504 0.631,-2.988 2.134,-3.318 v 0 c 12.437,-2.682 23.467,-0.354 32.761,6.961 v 0 c 16.613,13.063 24.723,40.841 25.218,61.122 v 0 c 0.18,7.227 0.712,29.224 7.295,33.25 v 0 c 0.548,0.335 2.227,1.358 5.84,-0.388 v 0 c 2.629,-1.266 4.492,-4.011 5.55,-8.158 v 0 c 3.855,-15.11 -4.076,-42.84 -17.681,-61.807 v 0 c -14.935,-20.856 -19.543,-44.183 -10.953,-55.476 v 0 c 2.12,-2.788 6.412,-6.451 14.3,-6.451 v 0 c 3.512,0 7.746,0.728 12.82,2.59 v 0 c 19.174,7.034 20.648,61.409 19.387,119.121 v 0 c -0.121,5.267 -0.213,9.662 -0.213,12.806 v 0 c 0,14.328 -4.831,32.459 -18.389,40.39 v 0 c -4.714,2.75 -10.123,4.123 -16.215,4.123 v 0 c -10.399,0 -22.783,-4.016 -37.01,-12.024"
         id="path194" />
    </clipPath>
    <clipPath
       clipPathUnits="userSpaceOnUse"
       id="clipPath208">
      <path
         d="M 0,1080 H 1920 V 0 H 0 Z"
         id="path206" />
    </clipPath>
    <clipPath
       clipPathUnits="userSpaceOnUse"
       id="clipPath220">
      <path
         d="m 361.157,698.504 c -9.827,-8.469 -13.819,-17.335 -11.558,-25.64 v 0 c 1.537,-5.622 7.993,-8.828 13.708,-9.497 v 0 c 2.4,-0.291 6.674,-0.34 8.25,2.537 v 0 c 0.412,0.747 1.159,2.755 -0.834,5.195 v 0 c -2.585,3.172 -0.311,6.805 0.446,7.843 v 0 c 2.095,2.872 5.36,4.38 7.61,3.493 v 0 c 2.576,-1.014 5.724,-2.848 6.083,-5.817 v 0 c 0.393,-3.24 -2.518,-7.484 -7.596,-11.073 v 0 c -12.942,-9.158 -36.641,-13.126 -60.384,-1.349 v 0 c -1.388,0.679 -3.056,0.116 -3.741,-1.261 v 0 c -0.684,-1.382 -0.121,-3.06 1.261,-3.74 v 0 c 25.801,-12.791 51.785,-8.313 66.09,1.795 v 0 c 6.955,4.924 10.564,10.861 9.909,16.298 v 0 c -0.382,3.148 -2.352,7.494 -9.579,10.342 v 0 c -4.672,1.828 -10.497,-0.384 -14.155,-5.399 v 0 c -3.181,-4.361 -3.599,-9.308 -1.125,-13.427 v 0 c -1.465,0.029 -3.735,0.305 -6,1.286 v 0 c -1.44,0.63 -3.953,2.013 -4.56,4.239 v 0 c -1.289,4.72 0.398,9.828 5.012,15.187 v 0 c 10.855,12.622 33.007,21.474 38.135,21.915 v 0 c 0.363,-1.896 -0.35,-7.077 -0.936,-11.316 v 0 c -1.18,-8.547 -2.644,-19.17 -0.845,-28.779 v 0 c 2.227,-11.849 15.134,-21.008 22.803,-26.212 v 0 c -14.111,-0.049 -47.109,-0.199 -68.359,-0.301 v 0 c -19.631,-0.092 -38.155,-5.588 -53.561,-15.895 v 0 c -4.243,-2.833 -7.959,-5.821 -11.049,-8.877 v 0 c -1.091,-1.081 -1.101,-2.852 -0.019,-3.948 v 0 c 0.548,-0.543 1.261,-0.82 1.984,-0.82 v 0 c 0.708,0 1.416,0.267 1.964,0.806 v 0 c 2.838,2.803 6.272,5.563 10.22,8.207 v 0 c 14.493,9.691 31.956,14.867 50.49,14.949 v 0 c 26.091,0.121 69.911,0.325 74.679,0.325 v 0 c 2.586,0 3.512,1.252 3.837,2.304 v 0 c 0.786,2.575 -1.222,3.934 -6.088,7.218 v 0 c -6.829,4.612 -19.528,13.198 -21.42,23.273 v 0 c -1.634,8.716 -0.237,18.849 0.888,26.984 v 0 c 1.334,9.638 2.135,15.458 -2.037,17.291 v 0 c -0.466,0.205 -1.092,0.301 -1.853,0.301 v 0 c -7.14,0 -26.241,-8.585 -37.67,-18.437"
         id="path218" />
    </clipPath>
    <clipPath
       clipPathUnits="userSpaceOnUse"
       id="clipPath232">
      <path
         d="M 0,1080 H 1920 V 0 H 0 Z"
         id="path230" />
    </clipPath>
    <clipPath
       clipPathUnits="userSpaceOnUse"
       id="clipPath244">
      <path
         d="m 411.845,725.556 c -5.737,-22.138 -3.598,-50.562 14.126,-64.163 v 0 c 15.322,-11.734 31.082,-8.319 39.905,0.266 v 0 c 7.533,7.339 9.338,17.244 4.38,24.089 v 0 c -3.337,4.612 -2.73,12.068 1.543,18.989 v 0 c 6.267,10.147 21.119,19.665 43.97,15.949 v 0 c 40.037,-6.524 118.587,-59.23 126.79,-125.765 v 0 c 3.875,-31.413 -1.844,-73.671 -18.132,-90.022 v 0 c -5.04,-5.054 -10.837,-7.238 -17.225,-6.471 v 0 c -3.415,0.408 -5.51,1.752 -6.606,4.216 v 0 c -3.929,8.847 5.341,29.452 16.526,45.241 v 0 c 5.166,7.294 9.255,21.972 3.502,30.573 v 0 c -2.464,3.681 -7.649,7.552 -18.394,5.107 v 0 c -4.19,-0.955 -7.785,-3.889 -10.685,-8.716 v 0 c -13.315,-22.157 -9.866,-82.227 -4.89,-100.616 v 0 c 3.779,-14.037 -8.303,-23.015 -14.906,-26.756 v 0 c 0.374,15.367 1.51,66.565 1.51,119.053 v 0 c 0,55.602 39.643,60.671 41.326,60.86 v 0 c 0.911,0.093 1.721,0.635 2.159,1.445 v 0 c 0.436,0.801 0.445,1.776 0.029,2.591 v 0 c -19.447,38.14 -92.685,88.048 -121.119,75.431 v 0 c -11.074,-4.909 -10.385,-16.501 -9.774,-26.722 v 0 c 0.636,-10.535 0.597,-17.161 -5.248,-20.377 v 0 c -7.199,-3.949 -8.634,-9.424 -8.571,-13.324 v 0 c 0.155,-9.779 9.977,-20.557 19.373,-25.325 v 0 c 8.159,-4.137 25.044,-23.026 25.809,-36.977 v 0 c 0.248,-4.592 -1.348,-7.949 -4.878,-10.258 v 0 c -0.621,-0.403 -1.664,-0.214 -2.436,0.019 v 0 c -7.052,2.129 -20.382,16.531 -26.988,31.892 v 0 c -3.973,9.289 -9.129,16.536 -13.669,22.934 v 0 c -1.543,2.168 -3.031,4.259 -4.385,6.316 v 0 c -6.432,9.768 -13.02,11.335 -17.438,10.918 v 0 c -5.549,-0.519 -10.744,-4.69 -13.228,-10.632 v 0 c -2.25,-5.375 -1.765,-10.832 1.311,-14.586 v 0 c 7.425,-9.022 95.157,-100.116 98.888,-103.995 v 0 c 0.79,-0.82 2.012,-1.073 3.065,-0.646 v 0 c 1.058,0.437 1.746,1.474 1.732,2.615 v 0 c -0.029,2.521 -0.81,61.864 -4.181,75.236 v 0 c -4.08,16.211 -19.611,31.791 -31.917,42.001 v 0 c -0.995,0.82 -0.771,1.849 -0.631,2.261 v 0 c 0.112,0.315 0.582,1.358 1.912,1.387 v 0 c 20.77,0.456 59.356,1.048 84.457,-0.024 v 0 c 1.393,-0.068 2.639,0.728 3.071,2.008 v 0 c 0.941,2.78 1.023,3.007 -25.252,21.415 v 0 c -4.724,3.313 -9.73,6.82 -14.625,10.303 v 0 c -3.056,2.173 -30.233,21.153 -43.752,17.132 v 0 c -3.114,-0.922 -5.389,-2.997 -6.567,-5.995 v 0 c -1.946,-4.938 -2.018,-8.77 -0.219,-11.714 v 0 c 2.94,-4.807 9.886,-5.486 16.604,-6.146 v 0 c 5.68,-0.553 11.554,-1.13 13.78,-3.948 v 0 c 0.873,-1.112 1.213,-2.639 1.015,-4.667 v 0 c -1.975,-0.8 -8.795,-0.649 -13.864,-0.538 v 0 c -14.435,0.315 -32.387,0.703 -36.67,-10.036 v 0 c -0.568,-1.431 0.126,-3.051 1.562,-3.623 v 0 c 1.431,-0.568 3.046,0.13 3.623,1.557 v 0 c 2.842,7.145 19.32,6.786 31.364,6.524 v 0 c 11.277,-0.243 18.728,-0.408 19.441,4.773 v 0 c 0.533,3.851 -0.174,7.033 -2.09,9.459 v 0 c -3.697,4.685 -10.779,5.379 -17.618,6.053 v 0 c -5.107,0.5 -10.899,1.067 -12.388,3.502 v 0 c -1.009,1.659 -0.204,4.589 0.649,6.757 v 0 c 0.564,1.421 1.475,2.256 2.97,2.697 v 0 c 7.401,2.212 25.189,-6.553 38.925,-16.327 v 0 c 4.899,-3.492 9.919,-7.009 14.659,-10.332 v 0 c 6.538,-4.579 13.635,-9.551 18.301,-13.023 v 0 c -24.937,0.713 -58.591,0.179 -77.498,-0.233 v 0 c -3.226,-0.069 -5.995,-2.081 -7.052,-5.128 v 0 c -1.058,-3.041 -0.151,-6.335 2.328,-8.386 v 0 c 9.551,-7.926 26.164,-23.54 30.074,-39.072 v 0 c 2.551,-10.113 3.574,-50.387 3.895,-66.86 v 0 c -19.078,19.825 -87.389,90.905 -93.679,98.549 v 0 c -1.718,2.091 -1.898,5.506 -0.476,8.896 v 0 c 1.698,4.065 5.074,6.902 8.605,7.232 v 0 c 4.109,0.398 8.367,-2.527 12.262,-8.44 v 0 c 1.382,-2.105 2.906,-4.244 4.487,-6.475 v 0 c 4.39,-6.165 9.347,-13.155 13.092,-21.895 v 0 c 6.916,-16.085 20.886,-32.13 30.505,-35.037 v 0 c 3.449,-1.042 5.757,-0.223 7.091,0.656 v 0 c 5.2,3.395 7.761,8.658 7.397,15.23 v 0 c -0.893,16.327 -19.252,36.782 -28.851,41.647 v 0 c -7.78,3.954 -16.201,13.107 -16.317,20.441 v 0 c -0.058,3.487 1.8,6.218 5.675,8.343 v 0 c 9.361,5.141 8.711,16.012 8.139,25.596 v 0 c -0.669,11.171 -0.567,18.175 6.461,21.294 v 0 c 23.317,10.332 90.357,-31.849 112.131,-69.635 v 0 c -11.195,-2.905 -42.36,-15.507 -42.36,-65.594 v 0 c 0,-62.378 -1.606,-122.937 -1.62,-123.544 v 0 c -0.029,-0.946 0.422,-1.828 1.202,-2.367 v 0 c 0.466,-0.33 1.025,-0.495 1.582,-0.495 v 0 c 0.364,0 0.713,0.068 1.062,0.209 v 0 c 9.856,4.05 27.163,16.647 22.129,35.356 v 0 c -4.963,18.34 -7.8,76.183 4.283,96.288 v 0 c 2.091,3.473 4.496,5.539 7.149,6.146 v 0 c 6.141,1.401 10.351,0.471 12.515,-2.765 v 0 c 3.759,-5.626 1.251,-17.656 -3.415,-24.253 v 0 C 603.53,538.343 589.765,513.3 595.493,500.378 v 0 c 1.324,-2.973 4.312,-6.684 11.049,-7.484 v 0 c 8.174,-0.966 15.527,1.736 21.838,8.076 v 0 c 17.482,17.554 23.754,61.898 19.717,94.635 v 0 c -8.886,72.083 -91.486,124.077 -131.43,130.582 v 0 c -25.573,4.167 -42.399,-6.835 -49.612,-18.52 v 0 c -5.467,-8.852 -5.981,-18.733 -1.315,-25.189 v 0 c 3.284,-4.545 1.747,-11.467 -3.754,-16.816 v 0 c -6.582,-6.408 -19.073,-10.211 -32.625,0.154 v 0 c -15.691,12.05 -17.394,37.98 -12.116,58.343 v 0 c 0.387,1.494 -0.51,3.012 -1.999,3.396 v 0 c -0.233,0.067 -0.476,0.091 -0.699,0.091 v 0 c -1.241,0 -2.371,-0.834 -2.702,-2.09"
         id="path242" />
    </clipPath>
    <clipPath
       clipPathUnits="userSpaceOnUse"
       id="clipPath256">
      <path
         d="M 0,1080 H 1920 V 0 H 0 Z"
         id="path254" />
    </clipPath>
    <clipPath
       clipPathUnits="userSpaceOnUse"
       id="clipPath268">
      <path
         d="m 294.622,586.422 c -10.312,-9.409 -18.635,-17.748 -24.718,-24.791 v 0 c -1.009,-1.164 -0.883,-2.925 0.281,-3.933 v 0 c 1.169,-1.009 2.92,-0.879 3.934,0.286 v 0 c 5.947,6.872 14.11,15.056 24.263,24.315 v 0 c 11.529,10.511 35.909,21.371 45.706,20.378 v 0 c 1.358,-0.136 2.318,-0.505 2.722,-0.815 v 0 c -0.364,-1.271 -4.9,-4.06 -8.203,-6.088 v 0 C 328.425,589.522 313.04,580.073 316.76,563.246 v 0 c 4.292,-19.372 0.495,-58.361 -22.341,-67.083 v 0 c -4.545,-1.742 -12.612,-3.977 -15.508,0.587 v 0 c -3.017,4.763 -0.097,14.028 3.333,17.321 v 0 c 0.722,0.694 1.561,1.489 2.493,2.367 v 0 c 12.402,11.724 24.422,23.855 23.365,32.101 v 0 c -0.301,2.406 -1.664,4.336 -3.929,5.584 v 0 c -9.508,5.243 -16.7,-4.934 -23.045,-13.907 v 0 c -3.701,-5.239 -7.524,-10.652 -10.904,-11.812 v 0 c -1.461,-0.495 -2.236,-2.075 -1.741,-3.536 v 0 c 0.499,-1.459 2.08,-2.235 3.54,-1.741 v 0 c 5.099,1.741 9.255,7.63 13.655,13.868 v 0 c 6.441,9.114 11.011,14.887 15.803,12.243 v 0 c 0.863,-0.47 1.033,-0.955 1.091,-1.407 v 0 c 0.786,-6.121 -15.531,-21.542 -21.668,-27.342 v 0 c -0.94,-0.883 -1.789,-1.693 -2.521,-2.391 v 0 c -4.909,-4.711 -8.824,-17.002 -4.182,-24.331 v 0 c 1.732,-2.726 4.894,-5.322 10.7,-5.322 v 0 c 3.051,0 6.835,0.718 11.516,2.509 v 0 c 27.066,10.341 30.175,53.671 25.796,73.495 v 0 c -2.872,12.951 9.433,20.503 19.309,26.577 v 0 c 5.84,3.584 10.06,6.17 10.759,9.749 v 0 c 0.286,1.455 -0.059,2.905 -0.995,4.176 v 0 c -1.362,1.868 -3.599,2.974 -6.64,3.28 v 0 c -0.572,0.053 -1.174,0.082 -1.799,0.082 v 0 c -12.991,0 -37.073,-11.729 -48.225,-21.891"
         id="path266" />
    </clipPath>
    <clipPath
       clipPathUnits="userSpaceOnUse"
       id="clipPath280">
      <path
         d="M 0,1080 H 1920 V 0 H 0 Z"
         id="path278" />
    </clipPath>
    <clipPath
       clipPathUnits="userSpaceOnUse"
       id="clipPath292">
      <path
         d="m 284.233,464.096 c -1.16,-1.019 -1.267,-2.779 -0.253,-3.939 v 0 c 1.024,-1.154 2.784,-1.261 3.939,-0.243 v 0 c 5.035,4.439 9.235,6.36 12.155,5.564 v 0 c 2.386,-0.66 4.337,-3.308 5.806,-7.878 v 0 c 9.9,-30.757 30.705,-33.948 47.725,-33.332 v 0 c 27.071,1.013 69.571,0.679 78.919,-2.59 v 0 c 3.211,-1.126 5.321,-4.449 4.603,-7.261 v 0 c -1.14,-4.453 -9.672,-8.479 -29.991,-5.152 v 0 c -14.372,2.367 -25.737,-0.02 -33.77,-7.096 v 0 c -11.03,-9.697 -11.728,-24.66 -11.515,-30.646 v 0 c 0.053,-1.509 1.295,-2.692 2.789,-2.692 v 0 h 0.098 c 1.541,0.053 2.749,1.348 2.692,2.886 v 0 c -0.185,5.189 0.387,18.146 9.613,26.266 v 0 c 6.728,5.913 16.545,7.858 29.191,5.777 v 0 c 29.394,-4.813 35.176,4.884 36.291,9.279 v 0 c 1.427,5.592 -2.231,11.826 -8.158,13.901 v 0 c -11.579,4.051 -59.55,3.702 -80.97,2.901 v 0 c -15.983,-0.621 -33.498,2.44 -42.21,29.468 v 0 c -2.071,6.475 -5.317,10.36 -9.633,11.544 v 0 c -0.907,0.252 -1.853,0.378 -2.828,0.378 v 0 c -4.254,0 -9.119,-2.391 -14.493,-7.135"
         id="path290" />
    </clipPath>
    <clipPath
       clipPathUnits="userSpaceOnUse"
       id="clipPath304">
      <path
         d="M 0,1080 H 1920 V 0 H 0 Z"
         id="path302" />
    </clipPath>
    <clipPath
       clipPathUnits="userSpaceOnUse"
       id="clipPath316">
      <path
         d="m 417.153,560.249 c -1.024,-0.369 -1.737,-1.295 -1.835,-2.372 v 0 c -0.359,-3.833 -8.289,-93.994 24.617,-102.527 v 0 c 9.89,-2.575 16.759,-1.644 20.407,2.751 v 0 c 3.197,3.841 3.284,9.996 0.247,16.467 v 0 c -2.614,5.578 -7.644,11.205 -12.98,11.205 v 0 c -5.287,0 -8.93,2.668 -10.826,7.926 v 0 c -2.46,6.84 -0.791,15.429 1.605,17.414 v 0 c 0.315,0.266 0.417,0.295 0.835,0.043 v 0 c 16.433,-9.624 48.316,-45.678 46.953,-51.037 v 0 c -0.456,-0.932 -3.856,-3.187 -6.588,-4.987 v 0 C 463.819,444.698 427.12,420.416 449.031,353.192 v 0 c -5.046,-1.654 -22.556,-3.574 -38.893,1.451 v 0 c -11.893,3.667 -19.508,9.987 -22.628,18.796 v 0 c -1.979,5.588 -3.386,13.018 1.179,16.681 v 0 c 6.121,4.913 20.46,2.041 29.487,-3.609 v 0 c 10.816,-6.781 12.174,-17.002 12.025,-18.941 v 0 c -0.078,-0.122 -0.141,-0.258 -0.2,-0.398 v 0 c -1.58,-4.031 -7.586,-4.012 -12.252,-2.756 v 0 c -8.072,2.169 -16.167,8.62 -15.163,15.265 v 0 c 0.233,1.524 -0.81,2.945 -2.338,3.177 v 0 c -1.513,0.223 -2.944,-0.82 -3.172,-2.337 v 0 c -1.548,-10.192 8.75,-18.675 19.227,-21.488 v 0 c 8.984,-2.412 16.095,-0.243 18.709,5.651 v 0 c 0.703,1.047 0.796,2.42 0.776,3.463 v 0 c -0.073,5.209 -3.24,15.934 -14.654,23.093 v 0 c -10.792,6.753 -27.604,9.91 -35.938,3.225 v 0 c -3.924,-3.147 -7.624,-9.676 -2.943,-22.889 v 0 c 7.673,-21.677 35.399,-25.145 46.962,-25.635 v 0 c 0.054,0 1.393,-0.058 3.435,-0.058 v 0 c 6.524,0 20.256,0.538 22.259,4.967 v 0 c 0.287,0.645 0.325,1.378 0.097,2.046 v 0 c -21.978,64.741 11.54,86.923 27.658,97.579 v 0 c 4.521,2.994 7.504,4.963 8.581,7.33 v 0 c 5.141,11.292 -39.091,52.245 -49.195,58.163 v 0 c -2.425,1.436 -5.064,1.232 -7.218,-0.558 v 0 c -4.758,-3.938 -6.324,-15.187 -3.297,-23.603 v 0 c 2.701,-7.489 8.41,-11.612 16.074,-11.612 v 0 c 2.008,0 5.617,-3.061 7.93,-7.994 v 0 c 1.616,-3.449 2.605,-8.028 0.515,-10.535 v 0 c -2.09,-2.518 -7.319,-2.842 -14.717,-0.922 v 0 c -21.813,5.656 -22.734,62.538 -20.934,90.57 v 0 L 528.245,442.171 c 0.096,-0.771 0.121,-2.114 -0.718,-2.857 v 0 c -0.829,-0.737 -4.642,-2.706 -18.733,3.051 v 0 c -11.578,4.724 -25.368,1.038 -36.888,-9.847 v 0 c -12.884,-12.189 -22.648,-33.9 -15.411,-54.918 v 0 c 5.079,-14.789 24.486,-24.82 57.679,-29.836 v 0 c 1.663,-0.242 3.22,1.078 3.22,2.761 v 0 c 0,1.411 -1.062,2.58 -2.43,2.76 v 0 c -30.515,4.617 -48.904,13.649 -53.191,26.124 v 0 c -6.432,18.681 2.381,38.092 13.964,49.055 v 0 c 9.881,9.342 21.445,12.611 30.947,8.741 v 0 c 12.432,-5.089 20.484,-5.739 24.607,-2.009 v 0 c 3.056,2.77 2.818,7.048 2.197,9.139 v 0 c -0.131,0.436 -0.368,0.839 -0.689,1.159 v 0 L 420.078,559.579 c -0.539,0.543 -1.257,0.835 -1.989,0.835 v 0 c -0.316,0 -0.631,-0.059 -0.936,-0.165"
         id="path314" />
    </clipPath>
    <clipPath
       clipPathUnits="userSpaceOnUse"
       id="clipPath328">
      <path
         d="M 0,1080 H 1920 V 0 H 0 Z"
         id="path326" />
    </clipPath>
    <clipPath
       clipPathUnits="userSpaceOnUse"
       id="clipPath340">
      <path
         d="m 621.376,617.893 c -30.083,-1.737 -39.591,-32.131 -41.356,-39.212 v 0 c -0.015,-0.039 -0.024,-0.073 -0.044,-0.107 v 0 c -0.067,-0.175 -0.179,-0.635 -0.213,-0.824 v 0 l 0.039,-0.005 c -0.069,-0.326 -0.108,-0.509 -0.108,-0.534 v 0 c -0.033,-1.45 1.053,-2.682 2.503,-2.837 v 0 c 0.059,-0.006 0.151,-0.015 0.262,-0.015 v 0 c 0.69,0 2.217,0.242 2.756,2.27 v 0 h 0.009 c 0,0.005 0.01,0.034 0.015,0.077 v 0 c 3.817,9.115 9.25,14.348 16.147,15.556 v 0 c 9.469,1.669 20.131,-4.549 26.014,-11.02 v 0 c 1.664,-1.829 3.294,-1.761 4.128,-1.557 v 0 c 1.038,0.257 2.42,1.081 3.061,3.536 v 0 c 1.736,6.625 -1.698,25.067 -11.147,33.92 v 0 c -0.514,0.489 -1.198,0.757 -1.901,0.757 v 0 c -0.059,0 -0.112,0 -0.165,-0.005 m -0.907,-5.661 c 6.514,-6.907 8.959,-19.378 8.983,-25.126 v 0 c -6.33,6 -15.6,11.006 -24.845,11.006 v 0 c -1.402,0 -2.799,-0.106 -4.181,-0.354 v 0 c -2.168,-0.379 -4.622,-1.14 -7.15,-2.571 v 0 c 5.36,8.018 13.922,15.852 27.193,17.045"
         id="path338" />
    </clipPath>
    <clipPath
       clipPathUnits="userSpaceOnUse"
       id="clipPath352">
      <path
         d="M 0,1080 H 1920 V 0 H 0 Z"
         id="path350" />
    </clipPath>
    <clipPath
       clipPathUnits="userSpaceOnUse"
       id="clipPath364">
      <path
         d="m 655.311,536.898 c 0,-31.64 -11.128,-41.841 -37.757,-54.026 v 0 c -10.391,-4.763 -16.609,-9.414 -19.718,-20.338 v 0 c -3.027,-10.584 -9.807,-28.459 -21.187,-29.273 v 0 c -8.392,-0.611 -15.77,-4.123 -20.795,-9.886 v 0 c -7.896,-9.191 -20.207,-20.324 -33.968,-21.163 v 0 c -7.848,-0.466 -15.396,2.537 -22.468,8.964 v 0 c -0.572,0.525 -1.344,0.785 -2.115,0.718 v 0 c -0.408,-0.039 -9.92,-0.936 -13.659,-7.504 v 0 c -2.154,-3.778 -1.941,-8.406 0.631,-13.766 v 0 c 3.836,-7.984 21.541,-12.049 40.278,-12.049 v 0 c 8.562,0 17.341,0.854 25.112,2.566 v 0 c 24.272,5.346 37.771,17.623 38.019,34.575 v 0 c 0.014,1.101 -0.616,2.105 -1.616,2.571 v 0 c -0.621,0.291 -15.536,6.883 -32.15,-14.406 v 0 c -0.95,-1.213 -0.731,-2.969 0.481,-3.915 v 0 c 1.212,-0.946 2.968,-0.732 3.914,0.485 v 0 c 10.75,13.771 19.966,13.927 23.681,13.252 v 0 c -1.717,-17.486 -21.551,-24.481 -33.527,-27.119 v 0 c -27.003,-5.947 -55.975,-0.19 -59.162,6.451 v 0 c -1.727,3.604 -2.008,6.49 -0.826,8.581 v 0 c 1.602,2.822 5.753,4.117 8.179,4.559 v 0 c 7.95,-6.878 16.565,-10.098 25.567,-9.536 v 0 c 15.707,0.966 29.259,13.091 37.849,23.084 v 0 c 4.036,4.637 10.065,7.47 16.977,7.974 v 0 c 11.103,0.796 20.145,12.311 26.15,33.309 v 0 c 2.546,8.95 7.407,12.549 16.676,16.792 v 0 c 27.789,12.719 41.012,24.806 41.012,59.1 v 0 c 0,1.532 -1.248,2.784 -2.789,2.784 v 0 c -1.538,0 -2.789,-1.252 -2.789,-2.784"
         id="path362" />
    </clipPath>
    <clipPath
       clipPathUnits="userSpaceOnUse"
       id="clipPath376">
      <path
         d="M 0,1080 H 1920 V 0 H 0 Z"
         id="path374" />
    </clipPath>
    <clipPath
       clipPathUnits="userSpaceOnUse"
       id="clipPath388">
      <path
         d="m 461.123,733.661 c -27.552,-18.039 -17.384,-37.732 -11.317,-49.504 v 0 c 1.708,-3.304 4.041,-7.82 3.338,-8.969 v 0 c -0.092,-0.146 -0.922,-1.402 -7.499,-1.373 v 0 c -6.146,0.034 -10.434,1.882 -13.117,5.641 v 0 c -5.67,7.941 -4.385,24.272 3.808,48.559 v 0 c 0.495,1.456 -0.296,3.041 -1.756,3.537 v 0 c -1.46,0.495 -3.036,-0.301 -3.536,-1.752 v 0 c -8.91,-26.446 -9.914,-43.975 -3.06,-53.584 v 0 c 3.744,-5.248 9.677,-7.931 17.631,-7.979 v 0 c 0.097,0 0.189,-0.005 0.282,-0.005 v 0 c 6.582,0 10.292,1.251 11.995,4.04 v 0 c 2.353,3.828 -0.063,8.513 -3.128,14.445 v 0 c -6.209,12.029 -13.931,26.998 9.415,42.278 v 0 c 1.285,0.844 1.649,2.571 0.8,3.866 v 0 c -0.533,0.81 -1.421,1.256 -2.333,1.256 v 0 c -0.524,0 -1.053,-0.145 -1.523,-0.456"
         id="path386" />
    </clipPath>
    <clipPath
       clipPathUnits="userSpaceOnUse"
       id="clipPath400">
      <path
         d="M 0,1080 H 1920 V 0 H 0 Z"
         id="path398" />
    </clipPath>
    <clipPath
       clipPathUnits="userSpaceOnUse"
       id="clipPath412">
      <path
         d="m 358.786,520.605 c -11.87,-16.928 -25.267,-39.746 -21.692,-52.289 v 0 c 0.955,-3.337 3.094,-5.802 6.198,-7.125 v 0 c 1.005,-0.432 2.048,-0.65 3.076,-0.65 v 0 c 1.508,0 3.003,0.455 4.39,1.358 v 0 c 5.835,3.783 9.609,15.342 9.841,30.175 v 0 c 0.025,1.543 -1.202,2.808 -2.75,2.832 v 0 c -1.445,-0.048 -2.803,-1.202 -2.828,-2.745 v 0 c -0.232,-14.473 -3.948,-23.409 -7.3,-25.587 v 0 c -0.79,-0.509 -1.459,-0.596 -2.241,-0.257 v 0 c -1.567,0.67 -2.527,1.79 -3.016,3.527 v 0 c -2.261,7.901 5.553,25.683 20.886,47.56 v 0 c 0.887,1.261 0.582,2.998 -0.68,3.885 v 0 c -0.489,0.339 -1.042,0.504 -1.604,0.504 v 0 c -0.873,0 -1.742,-0.417 -2.28,-1.188"
         id="path410" />
    </clipPath>
    <clipPath
       clipPathUnits="userSpaceOnUse"
       id="clipPath424">
      <path
         d="M 0,1080 H 1920 V 0 H 0 Z"
         id="path422" />
    </clipPath>
    <clipPath
       clipPathUnits="userSpaceOnUse"
       id="clipPath436">
      <path
         d="m 296.281,436.768 c 0,-1.237 0.83,-2.299 1.95,-2.673 v 0 -0.004 c 5.389,-1.776 8.79,-5.113 10.385,-10.211 v 0 c 4.976,-15.881 13.591,-21.803 19.931,-23.971 v 0 c 7.979,-2.742 17.317,-1.267 25.116,3.909 v 0 c -0.796,-2.78 -2.934,-8.372 -8.556,-19.407 v 0 c -0.699,-1.373 -0.155,-3.056 1.217,-3.75 v 0 c 0.408,-0.213 0.839,-0.31 1.261,-0.31 v 0 c 1.019,0 2.004,0.562 2.489,1.528 v 0 c 11.442,22.443 10.482,25.921 8.197,27.91 v 0 c -2.576,2.236 -6.053,-0.195 -7.193,-0.985 v 0 c -6.466,-4.492 -14.207,-5.85 -20.721,-3.619 v 0 c -7.359,2.513 -13.03,9.561 -16.42,20.363 v 0 c -2.11,6.747 -6.709,11.365 -13.669,13.742 v 0 c -0.358,0.175 -0.766,0.272 -1.193,0.272 v 0 c -1.542,0 -2.794,-1.247 -2.794,-2.794"
         id="path434" />
    </clipPath>
  </defs>
  <sodipodi:namedview
     id="namedview4"
     pagecolor="#ffffff"
     bordercolor="#000000"
     borderopacity="0.25"
     inkscape:showpageshadow="2"
     inkscape:pageopacity="0.0"
     inkscape:pagecheckerboard="0"
     inkscape:deskcolor="#d1d1d1" />
  <g
     id="g8"
     inkscape:groupmode="layer"
     inkscape:label="Nawa Logo"
     transform="matrix(1.3333333,0,0,-1.3333333,0,1440)">
    <g
       id="g10">
      <g
         id="g12"
         clip-path="url(#clipPath16)">
        <g
           id="g18"
           transform="translate(905.0968,645.5093)">
          <path
             d="m 0,0 c -1.086,0 -1.086,-1.116 0,-1.116 20.567,0 25.974,-54.939 25.974,-87.222 v -61.72 L -93.08,0 h -51.969 c -1.086,0 -1.086,-1.116 0,-1.116 19.02,0 25.083,-46.981 25.892,-79.602 v -36.943 c -0.01,-32.304 -5.418,-87.233 -25.984,-87.233 -1.096,0 -1.096,-1.116 0,-1.116 h 59.742 c 1.086,0 1.086,1.116 0,1.116 -20.566,0 -25.984,54.929 -25.984,87.233 v 84.784 L 25.974,-206 v -0.01 h 7.795 v 117.672 c 0,32.283 5.407,87.222 25.973,87.222 1.096,0 1.096,1.116 0,1.116 z"
             style="fill:#c59b6d;fill-opacity:1;fill-rule:nonzero;stroke:none"
             id="path20" />
        </g>
      </g>
    </g>
    <g
       id="g22">
      <g
         id="g24"
         clip-path="url(#clipPath28)">
        <g
           id="g30"
           transform="translate(825.3211,742.1808)">
          <path
             d="M 0,0 -162.636,-236.562 74.152,-399.354 236.788,-162.792 Z"
             style="fill:#c59b6d;fill-opacity:1;fill-rule:nonzero;stroke:none"
             id="path32" />
        </g>
      </g>
    </g>
    <g
       id="g34">
      <g
         id="g36"
         clip-path="url(#clipPath40)">
        <g
           id="g42"
           transform="translate(998.3004,596.3369)">
          <path
             d="m 0,0 v -22.994 c 8.255,9.72 26.773,22.656 51.733,22.656 25.462,0 35.561,-8.726 35.561,-18.518 0,-14.728 -18.733,-20.914 -31.638,-24.858 -37.65,-11.553 -79.664,-23.689 -79.664,-64.832 0,-35.755 31.628,-53.3 70.661,-53.3 18.026,0 41.276,9.771 67.004,9.771 7.2,0 20.064,-1.495 20.064,-4.199 0,-0.748 1.629,-0.748 1.629,0 V -45.813 C 135.35,-8.624 106.426,5.009 63.338,5.009 49.275,5.009 12.915,1.71 0,0 m 20.372,-106.795 c 0,25.135 17.657,41.102 37.773,52.368 11.03,6.166 28.473,12.987 32.785,23.916 0.02,-2.202 0.02,-117.959 0.02,-117.959 -7.763,-2.263 -15.681,-3.462 -23.29,-3.462 -25.422,0 -47.288,13.377 -47.288,45.137"
             style="fill:#c59b6d;fill-opacity:1;fill-rule:nonzero;stroke:none"
             id="path44" />
        </g>
      </g>
    </g>
    <g
       id="g46">
      <g
         id="g48"
         clip-path="url(#clipPath52)">
        <g
           id="g54"
           transform="translate(1025.4391,675.7404)">
          <path
             d="M 0,0 -129.042,-187.697 57.064,-315.645 186.106,-127.948 Z"
             style="fill:#c59b6d;fill-opacity:1;fill-rule:nonzero;stroke:none"
             id="path56" />
        </g>
      </g>
    </g>
    <g
       id="g58">
      <g
         id="g60"
         clip-path="url(#clipPath64)">
        <g
           id="g66"
           transform="translate(1380.2604,596.3369)">
          <path
             d="m 0,0 c -1.086,0 -1.086,-1.106 0,-1.106 20.576,0 11.861,-29.139 -21.969,-115.122 -4.435,10.662 -11.605,27.879 -11.605,27.879 -14.605,35.09 -31.351,87.232 -10.785,87.232 1.086,0 1.086,1.117 0,1.117 h -96.348 c -1.085,0 -1.085,-1.117 0,-1.117 14.534,0 28.115,-8.941 41.952,-39.124 -7.722,-19.583 -31.156,-75.987 -31.156,-75.987 l -11.605,27.879 c -14.605,35.09 -31.351,87.232 -10.785,87.232 1.086,0 1.086,1.117 0,1.117 h -96.357 c -1.076,0 -1.076,-1.117 0,-1.117 20.576,0 33.86,-17.81 62.753,-87.232 l 28.494,-68.489 h 44.502 c 1.085,0 1.085,1.117 0,1.117 -26.302,0 -6.883,44.584 18.456,105.217 4.845,-10.375 10.253,-22.85 16.49,-37.845 l 28.504,-68.489 h 44.502 c 1.075,0 1.075,1.117 0,1.117 -20.576,0 -6.709,45.649 9.412,88.236 15.363,40.548 34.732,66.379 55.298,66.379 1.085,0 1.085,1.106 0,1.106 z"
             style="fill:#c59b6d;fill-opacity:1;fill-rule:nonzero;stroke:none"
             id="path68" />
        </g>
      </g>
    </g>
    <g
       id="g70">
      <g
         id="g72"
         clip-path="url(#clipPath76)">
        <g
           id="g78"
           transform="translate(1230.2062,741.3256)">
          <path
             d="m 0,0 -172.899,-251.489 284.112,-195.326 172.898,251.489 z"
             style="fill:#c59b6d;fill-opacity:1;fill-rule:nonzero;stroke:none"
             id="path80" />
        </g>
      </g>
    </g>
    <g
       id="g82">
      <g
         id="g84"
         clip-path="url(#clipPath88)">
        <g
           id="g90"
           transform="translate(1454.0345,596.3369)">
          <path
             d="m 0,0 v -22.994 c 8.255,9.72 26.773,22.656 51.723,22.656 25.472,0 35.56,-8.726 35.56,-18.518 0,-14.728 -18.722,-20.914 -31.627,-24.858 -37.65,-11.553 -79.674,-23.689 -79.674,-64.832 0,-35.755 31.638,-53.3 70.671,-53.3 18.026,0 41.276,9.771 67.004,9.771 7.2,0 20.054,-1.495 20.054,-4.199 0,-0.748 1.639,-0.748 1.639,0 V -45.813 C 135.35,-8.624 106.416,5.009 63.337,5.009 49.275,5.009 12.915,1.71 0,0 m 20.372,-106.795 c 0,25.135 17.657,41.102 37.773,52.368 11.03,6.166 28.473,12.987 32.785,23.916 0.02,-2.202 0.02,-117.959 0.02,-117.959 -7.763,-2.263 -15.681,-3.462 -23.301,-3.462 -25.421,0 -47.277,13.377 -47.277,45.137"
             style="fill:#c59b6d;fill-opacity:1;fill-rule:nonzero;stroke:none"
             id="path92" />
        </g>
      </g>
    </g>
    <g
       id="g94">
      <g
         id="g96"
         clip-path="url(#clipPath100)">
        <g
           id="g102"
           transform="translate(1481.1661,675.7451)">
          <path
             d="M 0,0 -129.045,-187.702 57.068,-315.655 186.113,-127.953 Z"
             style="fill:#c59b6d;fill-opacity:1;fill-rule:nonzero;stroke:none"
             id="path104" />
        </g>
      </g>
    </g>
    <g
       id="g106">
      <g
         id="g108"
         clip-path="url(#clipPath112)">
        <g
           id="g114"
           transform="translate(1619.1686,598.754)">
          <path
             d="m 0,0 c -3.298,-1.977 -5.889,-4.629 -7.815,-7.979 -1.905,-3.328 -2.868,-6.933 -2.868,-10.805 0,-3.871 0.943,-7.466 2.848,-10.785 1.884,-3.308 4.476,-5.951 7.763,-7.897 3.308,-1.966 6.934,-2.939 10.887,-2.939 3.995,0 7.651,0.993 10.96,2.97 3.328,1.967 5.94,4.63 7.856,7.969 1.904,3.338 2.867,6.944 2.867,10.815 0,3.903 -0.963,7.518 -2.867,10.836 -1.916,3.319 -4.518,5.951 -7.815,7.887 C 18.528,1.997 14.892,2.96 10.939,2.96 6.944,2.96 3.298,1.987 0,0 m 1.188,-35.325 c -2.898,1.71 -5.183,4.035 -6.862,6.944 -1.68,2.919 -2.519,6.115 -2.519,9.597 0,3.482 0.839,6.698 2.519,9.638 1.679,2.929 3.984,5.264 6.924,7.006 2.928,1.751 6.155,2.622 9.689,2.622 3.533,0 6.759,-0.861 9.699,-2.592 2.94,-1.721 5.234,-4.035 6.923,-6.944 1.67,-2.919 2.51,-6.104 2.51,-9.597 0,-3.492 -0.85,-6.708 -2.54,-9.638 -1.711,-2.929 -4.025,-5.274 -6.965,-7.016 -2.929,-1.741 -6.186,-2.611 -9.751,-2.611 -3.533,0 -6.738,0.86 -9.627,2.591 M 2.765,-6.79 v -22.83 h 2.438 v 7.323 h 6.063 c 0.677,0 1.168,0.031 1.465,0.061 l 4.906,-7.384 h 2.929 l -5.541,7.845 c 1.7,0.502 2.991,1.393 3.882,2.673 0.912,1.281 1.342,2.858 1.342,4.722 0,2.417 -0.779,4.292 -2.325,5.613 -1.557,1.321 -3.78,1.977 -6.658,1.977 z m 2.438,-2.172 h 6.063 c 2.121,0 3.759,-0.461 4.906,-1.403 1.147,-0.932 1.721,-2.294 1.721,-4.076 0,-1.834 -0.574,-3.237 -1.721,-4.21 -1.147,-0.993 -2.785,-1.475 -4.906,-1.475 H 5.203 Z"
             style="fill:#c59b6d;fill-opacity:1;fill-rule:nonzero;stroke:none"
             id="path116" />
        </g>
      </g>
    </g>
    <g
       id="g118">
      <g
         id="g120"
         clip-path="url(#clipPath124)">
        <g
           id="g126"
           transform="translate(1622.3442,621.8726)">
          <path
             d="m 0,0 -34.103,-49.605 49.566,-34.077 34.104,49.605 z"
             style="fill:#c59b6d;fill-opacity:1;fill-rule:nonzero;stroke:none"
             id="path128" />
        </g>
      </g>
    </g>
    <g
       id="g130">
      <g
         id="g132"
         clip-path="url(#clipPath136)">
        <g
           id="g138"
           transform="translate(647.0936,477.6823)">
          <path
             d="m 0,0 c -28.298,-6.311 -43.063,-15.779 -45.251,-50.029 -1.761,-27.536 -20.775,-47.298 -52.173,-54.205 -31.208,-6.883 -67.505,1.363 -76.149,17.292 -3.366,6.204 -3.225,12.219 0.442,17.86 5.282,8.135 17.651,14.144 27.497,13.349 3.367,-0.267 7.771,-1.465 9.643,-5.666 2.193,-4.937 6.393,-7.45 11.782,-7.043 9.478,0.689 21.338,10.497 23.948,19.805 0.417,1.485 -0.451,3.022 -1.936,3.439 -1.484,0.422 -3.022,-0.446 -3.439,-1.93 -1.959,-6.995 -11.888,-15.236 -18.975,-15.755 -3.061,-0.228 -5.05,0.975 -6.287,3.75 -2.333,5.243 -7.411,8.42 -14.304,8.959 -11.898,0.916 -26.222,-6.034 -32.605,-15.867 -4.725,-7.28 -4.963,-15.652 -0.665,-23.563 7.548,-13.907 31.815,-22.667 58.008,-22.662 8.042,0 16.259,0.824 24.243,2.58 33.998,7.489 54.608,29.108 56.539,59.298 1.852,29.113 12.703,37.893 35.971,43.777 -3.08,-8.402 -10.278,-26.247 -20.042,-39.188 -0.932,-1.227 -0.684,-2.978 0.543,-3.905 1.227,-0.921 2.978,-0.679 3.91,0.548 13.707,18.161 22.21,44.47 22.564,45.586 0.301,0.951 0.073,1.994 -0.596,2.731 C 2.129,-0.257 1.378,0.063 0.606,0.063 0.403,0.063 0.199,0.044 0,0"
             style="fill:#c59b6d;fill-opacity:1;fill-rule:nonzero;stroke:none"
             id="path140" />
        </g>
      </g>
    </g>
    <g
       id="g142">
      <g
         id="g144"
         clip-path="url(#clipPath148)">
        <g
           id="g150"
           transform="translate(524.129,564.7343)">
          <path
             d="M 0,0 -112.247,-163.269 66.725,-286.312 178.972,-123.043 Z"
             style="fill:#c59b6d;fill-opacity:1;fill-rule:nonzero;stroke:none"
             id="path152" />
        </g>
      </g>
    </g>
    <g
       id="g154">
      <g
         id="g156"
         clip-path="url(#clipPath160)">
        <g
           id="g162"
           transform="translate(404.6815,580.2912)">
          <path
             d="m 0,0 c -3.492,-0.257 -3.943,-0.296 -2.343,-66.88 0.771,-31.868 8.188,-54.074 22.046,-65.997 9.066,-7.794 18.262,-8.75 22.211,-8.75 1.169,0 1.872,0.087 1.993,0.102 1.523,0.189 2.591,1.576 2.406,3.1 -0.179,1.523 -1.542,2.609 -3.099,2.43 -0.403,-0.044 -10.177,-1.077 -20.004,7.465 -12.354,10.729 -19.262,32.091 -19.979,61.781 -1.005,41.681 -0.874,55.889 -0.65,60.72 0.562,0.587 0.868,1.406 0.751,2.279 C 2.954,-0.708 1.499,0.014 0.281,0.014 0.184,0.014 0.087,0.01 0,0"
             style="fill:#c59b6d;fill-opacity:1;fill-rule:nonzero;stroke:none"
             id="path164" />
        </g>
      </g>
    </g>
    <g
       id="g166">
      <g
         id="g168"
         clip-path="url(#clipPath172)">
        <g
           id="g174"
           transform="translate(416.9274,603.8538)">
          <path
             d="m 0,0 -82.314,-119.729 100.376,-69.009 82.314,119.729 z"
             style="fill:#c59b6d;fill-opacity:1;fill-rule:nonzero;stroke:none"
             id="path176" />
        </g>
      </g>
    </g>
    <g
       id="g178">
      <g
         id="g180"
         clip-path="url(#clipPath184)">
        <g
           id="g186"
           transform="translate(302.0193,612.0284)">
          <path
             d="m 0,0 c -8.76,-4.933 -17.811,-11.423 -25.48,-18.258 -1.154,-1.028 -1.256,-2.789 -0.228,-3.938 1.024,-1.15 2.784,-1.252 3.939,-0.228 7.382,6.577 16.084,12.82 24.505,17.564 20.702,11.656 36.743,14.333 47.671,7.945 14.877,-8.697 15.624,-31.16 15.624,-35.574 0,-3.177 0.102,-7.606 0.218,-12.927 0.64,-29.302 2.348,-107.134 -15.73,-113.765 -6.859,-2.518 -16.031,-4.21 -20.761,2.008 -6.912,9.085 -2.061,30.539 11.045,48.841 14.688,20.474 22.837,49.66 18.558,66.438 -1.465,5.738 -4.414,9.812 -8.527,11.801 -4.225,2.037 -7.984,2.081 -11.181,0.126 -8.061,-4.928 -9.55,-21.114 -9.958,-37.873 -0.465,-19.019 -7.896,-44.921 -23.093,-56.878 -7.926,-6.233 -17.39,-8.207 -28.139,-5.883 -1.493,0.32 -2.983,-0.631 -3.308,-2.14 -0.325,-1.503 0.631,-2.988 2.135,-3.317 12.437,-2.683 23.467,-0.354 32.76,6.96 16.614,13.063 24.724,40.842 25.219,61.122 0.179,7.228 0.713,29.225 7.295,33.251 0.548,0.334 2.226,1.358 5.84,-0.388 2.629,-1.266 4.491,-4.012 5.549,-8.159 3.856,-15.109 -4.075,-42.84 -17.68,-61.806 -14.935,-20.857 -19.543,-44.184 -10.953,-55.476 2.12,-2.789 6.413,-6.451 14.299,-6.451 3.512,0 7.747,0.728 12.821,2.59 19.174,7.034 20.648,61.408 19.387,119.121 -0.121,5.267 -0.213,9.662 -0.213,12.805 0,14.329 -4.831,32.46 -18.389,40.391 -4.714,2.75 -10.123,4.123 -16.215,4.123 C 26.61,12.025 14.227,8.008 0,0"
             style="fill:#c59b6d;fill-opacity:1;fill-rule:nonzero;stroke:none"
             id="path188" />
        </g>
      </g>
    </g>
    <g
       id="g190">
      <g
         id="g192"
         clip-path="url(#clipPath196)">
        <g
           id="g198"
           transform="translate(307.3222,670.6555)">
          <path
             d="M 0,0 -115.618,-168.172 35.746,-272.235 151.364,-104.063 Z"
             style="fill:#c59b6d;fill-opacity:1;fill-rule:nonzero;stroke:none"
             id="path200" />
        </g>
      </g>
    </g>
    <g
       id="g202">
      <g
         id="g204"
         clip-path="url(#clipPath208)">
        <g
           id="g210"
           transform="translate(361.1574,698.5044)">
          <path
             d="m 0,0 c -9.827,-8.469 -13.819,-17.336 -11.559,-25.64 1.538,-5.622 7.994,-8.828 13.708,-9.497 2.401,-0.292 6.674,-0.34 8.251,2.536 0.412,0.747 1.159,2.755 -0.835,5.195 -2.585,3.173 -0.31,6.806 0.447,7.844 2.095,2.871 5.359,4.38 7.61,3.492 2.576,-1.014 5.724,-2.847 6.083,-5.816 0.393,-3.24 -2.518,-7.484 -7.596,-11.074 -12.942,-9.158 -36.641,-13.125 -60.385,-1.348 -1.387,0.679 -3.056,0.116 -3.74,-1.261 -0.684,-1.383 -0.121,-3.061 1.261,-3.74 25.801,-12.791 51.785,-8.314 66.089,1.795 6.956,4.923 10.565,10.86 9.91,16.298 -0.383,3.148 -2.352,7.494 -9.58,10.341 -4.671,1.829 -10.496,-0.383 -14.154,-5.399 -3.182,-4.36 -3.599,-9.308 -1.125,-13.426 -1.465,0.029 -3.735,0.306 -6,1.285 -1.441,0.631 -3.953,2.013 -4.56,4.24 -1.29,4.719 0.398,9.827 5.011,15.187 C 9.691,3.633 31.844,12.485 36.971,12.927 37.335,11.03 36.622,5.85 36.035,1.61 c -1.179,-8.546 -2.644,-19.169 -0.844,-28.778 2.226,-11.85 15.134,-21.008 22.802,-26.213 -14.11,-0.048 -47.108,-0.198 -68.359,-0.3 -19.63,-0.092 -38.154,-5.588 -53.56,-15.896 -4.244,-2.832 -7.959,-5.82 -11.049,-8.876 -1.092,-1.082 -1.101,-2.852 -0.02,-3.948 0.549,-0.544 1.261,-0.82 1.984,-0.82 0.708,0 1.417,0.267 1.965,0.805 2.837,2.804 6.272,5.564 10.22,8.207 14.493,9.692 31.955,14.867 50.489,14.95 26.092,0.121 69.912,0.325 74.68,0.325 2.585,0 3.512,1.251 3.837,2.304 0.785,2.575 -1.223,3.933 -6.088,7.217 -6.829,4.613 -19.528,13.199 -21.42,23.273 -1.635,8.717 -0.238,18.85 0.888,26.984 1.334,9.638 2.134,15.459 -2.038,17.292 -0.465,0.204 -1.091,0.301 -1.853,0.301 C 30.53,18.437 11.428,9.852 0,0"
             style="fill:#c59b6d;fill-opacity:1;fill-rule:nonzero;stroke:none"
             id="path212" />
        </g>
      </g>
    </g>
    <g
       id="g214">
      <g
         id="g216"
         clip-path="url(#clipPath220)">
        <g
           id="g222"
           transform="translate(331.6329,784.6528)">
          <path
             d="m 0,0 -94.01,-136.742 145.948,-100.34 94.01,136.743 z"
             style="fill:#c59b6d;fill-opacity:1;fill-rule:nonzero;stroke:none"
             id="path224" />
        </g>
      </g>
    </g>
    <g
       id="g226">
      <g
         id="g228"
         clip-path="url(#clipPath232)">
        <g
           id="g234"
           transform="translate(411.8458,725.556)">
          <path
             d="m 0,0 c -5.738,-22.138 -3.599,-50.562 14.125,-64.163 15.323,-11.734 31.082,-8.319 39.905,0.266 7.533,7.339 9.338,17.244 4.381,24.088 -3.338,4.613 -2.731,12.069 1.542,18.99 6.267,10.148 21.119,19.665 43.97,15.949 40.037,-6.524 118.587,-59.23 126.789,-125.765 3.876,-31.413 -1.843,-73.671 -18.131,-90.022 -5.04,-5.054 -10.836,-7.237 -17.224,-6.471 -3.415,0.408 -5.511,1.751 -6.607,4.215 -3.929,8.848 5.341,29.453 16.526,45.242 5.166,7.295 9.255,21.973 3.502,30.573 -2.464,3.681 -7.649,7.552 -18.393,5.107 -4.191,-0.955 -7.785,-3.89 -10.686,-8.716 -13.315,-22.158 -9.866,-82.227 -4.889,-100.615 3.778,-14.038 -8.304,-23.016 -14.906,-26.756 0.373,15.366 1.508,66.564 1.508,119.052 0,55.602 39.644,60.671 41.327,60.86 0.912,0.092 1.722,0.636 2.159,1.446 0.436,0.8 0.446,1.775 0.029,2.59 -19.446,38.14 -92.685,88.047 -121.119,75.431 -11.074,-4.909 -10.385,-16.502 -9.774,-26.722 0.636,-10.535 0.597,-17.161 -5.248,-20.377 -7.198,-3.948 -8.634,-9.425 -8.571,-13.324 0.155,-9.779 9.978,-20.557 19.373,-25.325 8.159,-4.138 25.044,-23.026 25.81,-36.976 0.247,-4.594 -1.348,-7.95 -4.88,-10.259 -0.621,-0.403 -1.663,-0.214 -2.435,0.019 -7.052,2.13 -20.382,16.531 -26.988,31.893 -3.973,9.289 -9.129,16.535 -13.669,22.933 -1.542,2.168 -3.032,4.259 -4.385,6.316 -6.432,9.769 -13.019,11.336 -17.438,10.918 -5.549,-0.519 -10.744,-4.69 -13.227,-10.632 -2.251,-5.375 -1.766,-10.831 1.309,-14.586 7.427,-9.022 95.159,-100.115 98.889,-103.996 0.791,-0.82 2.013,-1.072 3.065,-0.645 1.058,0.437 1.747,1.475 1.732,2.614 -0.029,2.523 -0.81,61.865 -4.181,75.238 -4.079,16.21 -19.611,31.79 -31.917,42.001 -0.994,0.819 -0.771,1.848 -0.63,2.26 0.111,0.315 0.582,1.358 1.911,1.387 20.77,0.456 59.356,1.048 84.458,-0.024 1.392,-0.068 2.639,0.728 3.07,2.008 0.941,2.78 1.024,3.007 -25.252,21.415 -4.724,3.313 -9.73,6.82 -14.624,10.303 -3.056,2.173 -30.234,21.153 -43.752,17.132 -3.114,-0.921 -5.389,-2.997 -6.568,-5.995 -1.945,-4.938 -2.018,-8.77 -0.218,-11.714 2.939,-4.807 9.885,-5.486 16.603,-6.146 5.68,-0.553 11.554,-1.13 13.781,-3.948 0.873,-1.111 1.212,-2.639 1.013,-4.667 -1.974,-0.8 -8.794,-0.649 -13.863,-0.538 -14.435,0.315 -32.387,0.703 -36.67,-10.036 -0.567,-1.431 0.126,-3.051 1.562,-3.623 1.431,-0.568 3.046,0.131 3.623,1.557 2.843,7.145 19.32,6.786 31.364,6.524 11.278,-0.243 18.728,-0.408 19.441,4.773 0.534,3.851 -0.174,7.033 -2.09,9.458 -3.696,4.686 -10.778,5.38 -17.618,6.054 -5.107,0.5 -10.899,1.067 -12.388,3.502 -1.009,1.659 -0.204,4.589 0.65,6.757 0.563,1.421 1.475,2.255 2.969,2.697 7.402,2.212 25.189,-6.553 38.925,-16.327 4.899,-3.493 9.92,-7.009 14.659,-10.332 6.538,-4.579 13.635,-9.551 18.301,-13.024 -24.937,0.713 -58.59,0.18 -77.498,-0.232 -3.225,-0.068 -5.995,-2.081 -7.052,-5.128 -1.058,-3.041 -0.151,-6.334 2.328,-8.386 9.551,-7.926 26.164,-23.54 30.074,-39.071 2.551,-10.114 3.574,-50.388 3.895,-66.861 -19.078,19.825 -87.388,90.905 -93.68,98.549 -1.717,2.091 -1.896,5.506 -0.475,8.896 1.698,4.065 5.074,6.903 8.605,7.232 4.109,0.398 8.367,-2.527 12.262,-8.439 1.383,-2.106 2.906,-4.245 4.487,-6.476 4.39,-6.165 9.347,-13.155 13.092,-21.895 6.917,-16.085 20.886,-32.131 30.505,-35.036 3.449,-1.043 5.758,-0.223 7.092,0.655 5.199,3.395 7.76,8.658 7.397,15.231 -0.893,16.326 -19.252,36.781 -28.852,41.646 -7.78,3.954 -16.2,13.107 -16.317,20.441 -0.058,3.487 1.8,6.218 5.675,8.343 9.362,5.141 8.712,16.011 8.14,25.596 -0.67,11.171 -0.568,18.175 6.461,21.294 23.316,10.332 90.356,-31.849 112.13,-69.635 -11.195,-2.905 -42.36,-15.507 -42.36,-65.594 0,-62.378 -1.605,-122.938 -1.62,-123.544 -0.029,-0.946 0.422,-1.828 1.203,-2.367 0.466,-0.33 1.023,-0.495 1.581,-0.495 0.364,0 0.713,0.068 1.062,0.209 9.857,4.05 27.164,16.647 22.129,35.356 -4.962,18.34 -7.8,76.183 4.283,96.288 2.09,3.473 4.496,5.54 7.15,6.146 6.14,1.402 10.351,0.47 12.514,-2.765 3.759,-5.626 1.252,-17.656 -3.415,-24.253 -9.041,-12.762 -22.807,-37.805 -17.079,-50.727 1.325,-2.973 4.313,-6.684 11.05,-7.484 8.173,-0.966 15.527,1.736 21.837,8.076 17.482,17.554 23.754,61.898 19.718,94.635 C 227.366,-57.867 144.765,-5.874 104.821,0.631 79.249,4.797 62.422,-6.204 55.209,-17.889 49.743,-26.741 49.228,-36.622 53.895,-43.078 57.179,-47.623 55.641,-54.545 50.14,-59.895 43.558,-66.302 31.068,-70.105 17.516,-59.74 1.824,-47.691 0.121,-21.76 5.399,-1.397 5.787,0.097 4.889,1.615 3.4,1.999 3.167,2.066 2.925,2.091 2.702,2.091 1.46,2.091 0.33,1.256 0,0"
             style="fill:#c59b6d;fill-opacity:1;fill-rule:nonzero;stroke:none"
             id="path236" />
        </g>
      </g>
    </g>
    <g
       id="g238">
      <g
         id="g240"
         clip-path="url(#clipPath244)">
        <g
           id="g246"
           transform="translate(485.0707,845.2086)">
          <path
             d="M 0,0 -214.454,-311.934 88.099,-519.94 302.554,-208.006 Z"
             style="fill:#c59b6d;fill-opacity:1;fill-rule:nonzero;stroke:none"
             id="path248" />
        </g>
      </g>
    </g>
    <g
       id="g250">
      <g
         id="g252"
         clip-path="url(#clipPath256)">
        <g
           id="g258"
           transform="translate(294.6222,586.4224)">
          <path
             d="m 0,0 c -10.312,-9.41 -18.636,-17.748 -24.719,-24.791 -1.008,-1.165 -0.882,-2.925 0.282,-3.934 1.169,-1.009 2.92,-0.878 3.934,0.286 5.946,6.873 14.11,15.056 24.262,24.316 11.53,10.511 35.909,21.372 45.707,20.377 1.358,-0.136 2.319,-0.504 2.721,-0.815 C 51.823,14.168 47.288,11.379 43.985,9.352 33.804,3.1 18.418,-6.349 22.138,-23.176 c 4.293,-19.373 0.495,-58.362 -22.342,-67.083 -4.545,-1.742 -12.611,-3.978 -15.507,0.587 -3.017,4.763 -0.097,14.027 3.332,17.321 0.723,0.693 1.562,1.489 2.494,2.367 12.403,11.724 24.422,23.855 23.365,32.101 -0.301,2.406 -1.664,4.336 -3.929,5.583 -9.507,5.243 -16.701,-4.933 -23.045,-13.907 -3.701,-5.238 -7.524,-10.651 -10.904,-11.811 -1.46,-0.495 -2.236,-2.076 -1.742,-3.536 0.5,-1.46 2.081,-2.236 3.541,-1.741 5.098,1.741 9.255,7.63 13.655,13.868 6.441,9.114 11.01,14.886 15.803,12.242 0.863,-0.47 1.033,-0.955 1.091,-1.406 0.786,-6.122 -15.531,-21.542 -21.667,-27.343 -0.941,-0.883 -1.79,-1.693 -2.523,-2.391 -4.908,-4.71 -8.823,-17.001 -4.181,-24.331 1.732,-2.726 4.894,-5.321 10.7,-5.321 3.051,0 6.835,0.718 11.516,2.508 27.066,10.341 30.175,53.672 25.795,73.496 -2.871,12.951 9.434,20.503 19.31,26.576 5.84,3.585 10.06,6.17 10.759,9.75 0.286,1.455 -0.059,2.905 -0.995,4.176 -1.363,1.868 -3.599,2.973 -6.64,3.279 -0.572,0.053 -1.174,0.083 -1.8,0.083 C 35.235,21.891 11.152,10.162 0,0"
             style="fill:#c59b6d;fill-opacity:1;fill-rule:nonzero;stroke:none"
             id="path260" />
        </g>
      </g>
    </g>
    <g
       id="g262">
      <g
         id="g264"
         clip-path="url(#clipPath268)">
        <g
           id="g270"
           transform="translate(295.1338,647.7984)">
          <path
             d="m 0,0 -83.105,-120.881 113.392,-77.957 83.106,120.881 z"
             style="fill:#c59b6d;fill-opacity:1;fill-rule:nonzero;stroke:none"
             id="path272" />
        </g>
      </g>
    </g>
    <g
       id="g274">
      <g
         id="g276"
         clip-path="url(#clipPath280)">
        <g
           id="g282"
           transform="translate(284.2323,464.0959)">
          <path
             d="m 0,0 c -1.159,-1.019 -1.266,-2.779 -0.252,-3.939 1.023,-1.154 2.784,-1.261 3.938,-0.242 5.035,4.438 9.236,6.359 12.156,5.563 2.386,-0.659 4.336,-3.308 5.806,-7.877 9.9,-30.757 30.704,-33.949 47.725,-33.333 27.071,1.014 69.571,0.679 78.919,-2.59 3.211,-1.126 5.321,-4.448 4.603,-7.262 -1.14,-4.452 -9.672,-8.478 -29.991,-5.151 -14.373,2.367 -25.737,-0.019 -33.77,-7.096 -11.03,-9.697 -11.729,-24.661 -11.515,-30.646 0.053,-1.509 1.295,-2.692 2.789,-2.692 h 0.097 c 1.542,0.053 2.75,1.348 2.692,2.886 -0.184,5.19 0.388,18.146 9.614,26.266 6.727,5.913 16.545,7.858 29.19,5.777 29.395,-4.812 35.177,4.884 36.292,9.279 1.427,5.593 -2.231,11.826 -8.158,13.902 -11.579,4.05 -59.551,3.701 -80.971,2.9 -15.982,-0.621 -33.498,2.44 -42.209,29.467 C 24.883,1.688 21.638,5.573 17.321,6.757 16.414,7.009 15.468,7.135 14.493,7.135 10.24,7.135 5.374,4.744 0,0"
             style="fill:#c59b6d;fill-opacity:1;fill-rule:nonzero;stroke:none"
             id="path284" />
        </g>
      </g>
    </g>
    <g
       id="g286">
      <g
         id="g288"
         clip-path="url(#clipPath292)">
        <g
           id="g294"
           transform="translate(334.6355,546.386)">
          <path
             d="m 0,0 -99.474,-144.69 157.121,-108.02 99.474,144.689 z"
             style="fill:#c59b6d;fill-opacity:1;fill-rule:nonzero;stroke:none"
             id="path296" />
        </g>
      </g>
    </g>
    <g
       id="g298">
      <g
         id="g300"
         clip-path="url(#clipPath304)">
        <g
           id="g306"
           transform="translate(417.1524,560.2487)">
          <path
             d="m 0,0 c -1.023,-0.369 -1.737,-1.295 -1.834,-2.372 -0.359,-3.832 -8.289,-93.994 24.617,-102.526 9.89,-2.576 16.759,-1.645 20.406,2.75 3.197,3.842 3.284,9.997 0.248,16.468 -2.615,5.578 -7.645,11.204 -12.98,11.204 -5.287,0 -8.93,2.668 -10.827,7.926 -2.459,6.839 -0.79,15.43 1.606,17.414 0.315,0.266 0.417,0.296 0.834,0.043 16.434,-9.623 48.317,-45.677 46.953,-51.037 -0.455,-0.932 -3.856,-3.187 -6.587,-4.987 -15.769,-10.433 -52.468,-34.715 -30.558,-101.939 -5.045,-1.654 -22.555,-3.575 -38.892,1.45 -11.894,3.667 -19.509,9.987 -22.628,18.796 -1.979,5.588 -3.386,13.019 1.179,16.681 6.121,4.914 20.459,2.042 29.486,-3.609 10.817,-6.781 12.175,-17.001 12.025,-18.941 -0.078,-0.121 -0.141,-0.257 -0.199,-0.398 -1.581,-4.031 -7.586,-4.011 -12.252,-2.755 -8.072,2.168 -16.167,8.619 -15.163,15.265 0.232,1.523 -0.81,2.944 -2.338,3.177 -1.514,0.223 -2.945,-0.82 -3.173,-2.338 -1.547,-10.191 8.751,-18.675 19.228,-21.488 8.983,-2.411 16.094,-0.243 18.709,5.651 0.703,1.047 0.795,2.42 0.776,3.463 -0.073,5.21 -3.24,15.934 -14.654,23.094 -10.792,6.752 -27.604,9.909 -35.938,3.225 -3.924,-3.148 -7.625,-9.677 -2.944,-22.89 7.674,-21.677 35.4,-25.145 46.963,-25.635 0.054,0 1.392,-0.058 3.434,-0.058 6.524,0 20.257,0.538 22.26,4.967 0.286,0.645 0.325,1.377 0.097,2.047 -21.978,64.74 11.539,86.922 27.658,97.579 4.52,2.993 7.503,4.962 8.58,7.329 5.142,11.292 -39.09,52.245 -49.194,58.163 -2.425,1.436 -5.064,1.232 -7.218,-0.558 -4.758,-3.938 -6.325,-15.187 -3.298,-23.603 2.702,-7.489 8.411,-11.612 16.075,-11.612 2.008,0 5.617,-3.061 7.93,-7.994 1.616,-3.448 2.605,-8.027 0.514,-10.535 -2.09,-2.517 -7.319,-2.842 -14.716,-0.922 C 2.372,-93.849 1.45,-36.966 3.25,-8.935 l 107.842,-109.142 c 0.097,-0.772 0.122,-2.115 -0.717,-2.857 -0.83,-0.738 -4.642,-2.707 -18.733,3.051 -11.579,4.724 -25.369,1.038 -36.889,-9.847 -12.883,-12.19 -22.647,-33.901 -15.41,-54.918 5.078,-14.79 24.486,-24.821 57.678,-29.836 1.664,-0.243 3.221,1.077 3.221,2.76 0,1.411 -1.063,2.58 -2.43,2.76 -30.515,4.618 -48.904,13.649 -53.192,26.125 -6.432,18.68 2.382,38.092 13.965,49.054 9.881,9.342 21.444,12.611 30.947,8.741 12.432,-5.089 20.484,-5.739 24.607,-2.009 3.055,2.77 2.818,7.048 2.197,9.139 -0.131,0.436 -0.369,0.839 -0.689,1.159 L 2.925,-0.669 C 2.386,-0.126 1.669,0.165 0.936,0.165 0.621,0.165 0.306,0.107 0,0"
             style="fill:#c59b6d;fill-opacity:1;fill-rule:nonzero;stroke:none"
             id="path308" />
        </g>
      </g>
    </g>
    <g
       id="g310">
      <g
         id="g312"
         clip-path="url(#clipPath316)">
        <g
           id="g318"
           transform="translate(427.8893,633.6027)">
          <path
             d="M 0,0 -150.47,-218.865 56.14,-360.91 206.61,-142.044 Z"
             style="fill:#c59b6d;fill-opacity:1;fill-rule:nonzero;stroke:none"
             id="path320" />
        </g>
      </g>
    </g>
    <g
       id="g322">
      <g
         id="g324"
         clip-path="url(#clipPath328)">
        <g
           id="g330"
           transform="translate(621.3759,617.8928)">
          <path
             d="m 0,0 c -30.083,-1.737 -39.59,-32.13 -41.356,-39.212 -0.015,-0.039 -0.024,-0.073 -0.044,-0.107 -0.068,-0.174 -0.179,-0.635 -0.213,-0.824 l 0.039,-0.005 c -0.068,-0.325 -0.107,-0.51 -0.107,-0.534 -0.034,-1.45 1.053,-2.682 2.503,-2.837 0.058,-0.005 0.15,-0.015 0.262,-0.015 0.689,0 2.217,0.243 2.755,2.27 h 0.01 c 0,0.005 0.009,0.034 0.014,0.078 3.818,9.114 9.25,14.348 16.148,15.556 9.468,1.668 20.13,-4.55 26.013,-11.021 1.664,-1.829 3.294,-1.761 4.128,-1.557 1.038,0.257 2.421,1.082 3.061,3.536 1.736,6.626 -1.698,25.068 -11.147,33.92 C 1.552,-0.262 0.868,0.005 0.165,0.005 0.107,0.005 0.053,0.005 0,0 m -0.907,-5.661 c 6.514,-6.907 8.959,-19.378 8.983,-25.126 -6.33,6.001 -15.599,11.006 -24.844,11.006 -1.402,0 -2.799,-0.106 -4.182,-0.354 -2.168,-0.378 -4.622,-1.14 -7.149,-2.571 5.359,8.018 13.921,15.852 27.192,17.045"
             style="fill:#c59b6d;fill-opacity:1;fill-rule:nonzero;stroke:none"
             id="path332" />
        </g>
      </g>
    </g>
    <g
       id="g334">
      <g
         id="g336"
         clip-path="url(#clipPath340)">
        <g
           id="g342"
           transform="translate(597.8475,644.3507)">
          <path
             d="m 0,0 -38.512,-56.018 58.803,-40.427 38.512,56.018 z"
             style="fill:#c59b6d;fill-opacity:1;fill-rule:nonzero;stroke:none"
             id="path344" />
        </g>
      </g>
    </g>
    <g
       id="g346">
      <g
         id="g348"
         clip-path="url(#clipPath352)">
        <g
           id="g354"
           transform="translate(655.3103,536.8981)">
          <path
             d="m 0,0 c 0,-31.64 -11.127,-41.841 -37.757,-54.026 -10.39,-4.763 -16.608,-9.415 -19.717,-20.338 -3.027,-10.584 -9.808,-28.458 -21.188,-29.273 -8.391,-0.611 -15.769,-4.123 -20.794,-9.886 -7.897,-9.192 -20.207,-20.324 -33.968,-21.163 -7.849,-0.465 -15.396,2.537 -22.468,8.964 -0.573,0.524 -1.344,0.786 -2.115,0.718 -0.408,-0.039 -9.92,-0.936 -13.659,-7.504 -2.154,-3.778 -1.941,-8.406 0.63,-13.766 3.837,-7.984 21.542,-12.049 40.279,-12.049 8.562,0 17.341,0.854 25.112,2.566 24.272,5.346 37.771,17.622 38.018,34.575 0.015,1.101 -0.615,2.105 -1.615,2.571 -0.621,0.291 -15.536,6.883 -32.149,-14.406 -0.951,-1.213 -0.733,-2.969 0.48,-3.915 1.213,-0.945 2.968,-0.732 3.914,0.486 10.749,13.77 19.965,13.926 23.681,13.251 -1.717,-17.486 -21.551,-24.481 -33.527,-27.119 -27.004,-5.947 -55.976,-0.189 -59.163,6.451 -1.727,3.604 -2.008,6.49 -0.824,8.581 1.6,2.823 5.752,4.118 8.178,4.559 7.95,-6.878 16.564,-10.099 25.567,-9.536 15.706,0.965 29.259,13.092 37.849,23.084 4.036,4.637 10.065,7.47 16.977,7.974 11.103,0.796 20.144,12.311 26.149,33.309 2.547,8.949 7.407,12.548 16.677,16.793 C -7.644,-46.381 5.578,-34.294 5.578,0 5.578,1.533 4.332,2.784 2.789,2.784 1.251,2.784 0,1.533 0,0"
             style="fill:#c59b6d;fill-opacity:1;fill-rule:nonzero;stroke:none"
             id="path356" />
        </g>
      </g>
    </g>
    <g
       id="g358">
      <g
         id="g360"
         clip-path="url(#clipPath364)">
        <g
           id="g366"
           transform="translate(539.069,623.4329)">
          <path
             d="m 0,0 -132.79,-193.149 197.031,-135.459 132.79,193.149 z"
             style="fill:#c59b6d;fill-opacity:1;fill-rule:nonzero;stroke:none"
             id="path368" />
        </g>
      </g>
    </g>
    <g
       id="g370">
      <g
         id="g372"
         clip-path="url(#clipPath376)">
        <g
           id="g378"
           transform="translate(461.1228,733.6612)">
          <path
             d="m 0,0 c -27.551,-18.039 -17.384,-37.732 -11.316,-49.505 1.707,-3.303 4.04,-7.819 3.337,-8.969 -0.092,-0.145 -0.922,-1.401 -7.499,-1.372 -6.146,0.034 -10.434,1.882 -13.116,5.641 -5.671,7.94 -4.385,24.272 3.808,48.559 0.494,1.455 -0.296,3.041 -1.756,3.536 -1.46,0.495 -3.037,-0.301 -3.536,-1.751 -8.911,-26.445 -9.915,-43.975 -3.061,-53.584 3.744,-5.248 9.677,-7.931 17.632,-7.979 0.097,0 0.189,-0.005 0.281,-0.005 6.582,0 10.293,1.251 11.995,4.04 2.353,3.827 -0.063,8.513 -3.128,14.445 -6.209,12.03 -13.931,26.999 9.415,42.278 1.285,0.844 1.649,2.571 0.8,3.866 C 3.323,0.01 2.435,0.456 1.523,0.456 0.999,0.456 0.47,0.311 0,0"
             style="fill:#c59b6d;fill-opacity:1;fill-rule:nonzero;stroke:none"
             id="path380" />
        </g>
      </g>
    </g>
    <g
       id="g382">
      <g
         id="g384"
         clip-path="url(#clipPath388)">
        <g
           id="g390"
           transform="translate(435.4759,754.9843)">
          <path
             d="m 0,0 -45.104,-65.606 61.11,-42.013 45.104,65.606 z"
             style="fill:#c59b6d;fill-opacity:1;fill-rule:nonzero;stroke:none"
             id="path392" />
        </g>
      </g>
    </g>
    <g
       id="g394">
      <g
         id="g396"
         clip-path="url(#clipPath400)">
        <g
           id="g402"
           transform="translate(358.7855,520.605)">
          <path
             d="m 0,0 c -11.869,-16.928 -25.267,-39.746 -21.692,-52.289 0.956,-3.337 3.095,-5.801 6.199,-7.126 1.004,-0.431 2.047,-0.65 3.076,-0.65 1.508,0 3.002,0.456 4.389,1.359 5.836,3.783 9.609,15.342 9.842,30.175 0.024,1.542 -1.203,2.808 -2.75,2.833 -1.446,-0.049 -2.804,-1.203 -2.828,-2.746 -0.233,-14.474 -3.948,-23.409 -7.3,-25.587 -0.791,-0.509 -1.46,-0.596 -2.241,-0.257 -1.567,0.67 -2.527,1.79 -3.017,3.527 -2.26,7.901 5.554,25.684 20.886,47.56 C 5.452,-1.94 5.146,-0.204 3.885,0.684 3.395,1.023 2.842,1.188 2.28,1.188 1.407,1.188 0.539,0.771 0,0"
             style="fill:#c59b6d;fill-opacity:1;fill-rule:nonzero;stroke:none"
             id="path404" />
        </g>
      </g>
    </g>
    <g
       id="g406">
      <g
         id="g408"
         clip-path="url(#clipPath412)">
        <g
           id="g414"
           transform="translate(343.3781,536.1343)">
          <path
             d="M 0,0 -38.455,-55.934 11,-89.935 49.455,-34 Z"
             style="fill:#c59b6d;fill-opacity:1;fill-rule:nonzero;stroke:none"
             id="path416" />
        </g>
      </g>
    </g>
    <g
       id="g418">
      <g
         id="g420"
         clip-path="url(#clipPath424)">
        <g
           id="g426"
           transform="translate(296.2811,436.7678)">
          <path
             d="m 0,0 c 0,-1.237 0.829,-2.299 1.95,-2.673 v -0.005 c 5.389,-1.775 8.789,-5.112 10.385,-10.21 4.977,-15.881 13.591,-21.803 19.931,-23.971 7.979,-2.741 17.316,-1.267 25.116,3.909 -0.795,-2.779 -2.934,-8.372 -8.556,-19.407 -0.699,-1.373 -0.155,-3.056 1.217,-3.75 0.408,-0.213 0.839,-0.31 1.261,-0.31 1.019,0 2.004,0.563 2.489,1.528 11.442,22.444 10.482,25.921 8.197,27.91 -2.575,2.236 -6.053,-0.194 -7.193,-0.985 -6.466,-4.491 -14.208,-5.849 -20.722,-3.618 -7.358,2.512 -13.028,9.56 -16.419,20.363 C 15.546,-4.472 10.948,0.146 3.987,2.522 3.628,2.697 3.221,2.794 2.794,2.794 1.251,2.794 0,1.547 0,0"
             style="fill:#c59b6d;fill-opacity:1;fill-rule:nonzero;stroke:none"
             id="path428" />
        </g>
      </g>
    </g>
    <g
       id="g430">
      <g
         id="g432"
         clip-path="url(#clipPath436)">
        <g
           id="g438"
           transform="translate(317.2187,470.0163)">
          <path
             d="m 0,0 -48.58,-70.662 71.94,-49.458 48.58,70.661 z"
             style="fill:#c59b6d;fill-opacity:1;fill-rule:nonzero;stroke:none"
             id="path440" />
        </g>
      </g>
    </g>
  </g>
</svg>
